<svg xmlns="http://www.w3.org/2000/svg" viewBox="0 0 242.94 242.94"><defs><style>.cls-1{fill:#fff;stroke:#575756;stroke-width:2px;}.cls-1,.cls-2,.cls-4,.cls-5{stroke-miterlimit:10;}.cls-2,.cls-6{fill:none;}.cls-2,.cls-4,.cls-5,.cls-6{stroke:#3c3c3b;}.cls-3{opacity:0.7;}.cls-4{fill-rule:evenodd;}.cls-6{stroke-linecap:round;stroke-linejoin:round;}</style></defs><title>logo_github</title><g id="circle"><circle class="cls-1" cx="121.47" cy="121.47" r="120.47"/></g><g id="Слой_1" data-name="Слой 1"><line class="cls-2" x1="121.4" y1="144.15" x2="121.4" y2="144.15"/><g class="cls-3"><path class="cls-4" d="M122.84,49.62c-.58.47-7.32,5.56-8,6.15-4.43,4.08-4.61,6.49-3.79,9.73a7.5,7.5,0,0,0,.92,1.88l-.29,0-.41.11c-.14,0-.26.29-.41.29a28.86,28.86,0,0,0-4.32.17,1.18,1.18,0,0,0-1,1.45c.13.74,1.17,1.21,1.83,1.16.26,0,.53,0,.79,0a.56.56,0,0,1,.23,0,4.5,4.5,0,0,1,1.86,2c.53,1,1.18,2.63,1.48,7,0,.13,0,.16-.18.18-1.87-.07-5.29,1.72-3.21,5.09a25.44,25.44,0,0,0,2.78,3c.54.14,9-3.89,11.17-7.1a2.44,2.44,0,0,0,.48-1.33C122.84,69.07,122.94,49.53,122.84,49.62ZM115.23,56c.84-.78,1.79-1.48,2.67-2.24s4.11-3.16,4.17-3.21l.09,0c-.07.52-5,6.39-5.66,7.43-1.22,2.19-1.92,4-1.34,9.08,0,.19,0,.25-.25.24a15.37,15.37,0,0,0-2.36,0c-.12,0-.17-.17-.26-.37C110.19,62.12,111.71,59.46,115.23,56Zm-3.75,12c1.07-.62,3.88-.19,4-.12a19.88,19.88,0,0,1,3.89,4.31l-.06,0c-.16-.18-4.63-3.61-7.75-4C111.34,68.08,111.31,68,111.48,67.94Zm-2.19,2.77-.18-.15a5.83,5.83,0,0,1,2.26,2.11,14.9,14.9,0,0,1,2.33,6.82c0,.11,0,.36,0,.43a6.27,6.27,0,0,1-.83.35s-.16,0-.21-.11a2.1,2.1,0,0,1-.48-1.51C111.74,73.25,110.06,71.17,109.29,70.71Zm-.61,13.74a2.89,2.89,0,0,1,2.85-4.36,1.06,1.06,0,0,1,.72.39s0,0,0,.06l-.58.71c-.45.56-1,1.92.25,4.49.08.17.62,1.11.62,1.11A5.82,5.82,0,0,1,108.68,84.45ZM119,82.74c-.28.2-6.07,5.9-7.38,1.45-.7-2.36,1.37-4.55,4.15-3.71.06,0,.11,0,.17,0s.22,0,.29,0a.21.21,0,0,0,.07-.22.4.4,0,0,0-.24-.17c-.37-.06-.75-.1-1.13-.15s-.47,0-.7-.09a.16.16,0,0,1-.11-.12c-.22-2.65-.65-5.53-3-8.14a8.75,8.75,0,0,0-1.11-1,.25.25,0,0,1,0-.07c2.17,0,7.28,2.21,9,4.82a7.59,7.59,0,0,1,1,6.31C119.9,82.16,119.51,82.41,119,82.74ZM122,79c-.11,2.68.14.32-1.15,2.33a11.53,11.53,0,0,0-.16-2.68c-.7-5.37-6.51-8.4-11.8-8.53-.52.05-1,.08-1.56.1s-1.29-.41-1.35-.88a.83.83,0,0,1,.5-.94,19,19,0,0,1,4.27-.15c3,.23,7.74,3.64,9,5C121.84,75.69,122.22,74.5,122,79Zm.35-2.42c-.17-1-2.9-6.09-6.74-9.17-.05,0-.06-.14-.07-.22a21.06,21.06,0,0,1,0-4.76c.14-4.63,5.52-8.54,7-12C122.56,59.18,122.39,67.89,122.39,76.59Z" transform="translate(-1.26 -0.59)"/><path class="cls-5" d="M108.62,68.12c.39-.25,4.51,1.89,2.1-5a6,6,0,0,1,.75-3A15.23,15.23,0,0,0,110.6,58c-2-3.72-13.21-3.2-13,6.75a1.31,1.31,0,0,0,.44,1.12c.34.44,1,.12,1.06.08,3.51-2.22,5.86-1.74,7.34-.68.38.27.4,1.7.59,2.07A1.74,1.74,0,0,0,108.62,68.12ZM98,64.07c.2-2,.41-4.74,3.66-6.76s7.27-1.8,8.91,2c.1.27.4.72.38.88a7,7,0,0,0-.61,2.38c0,.23-.37-.42-.57-.72-1.3-1.9-5.7-1.07-7-.62-1.85.66-1.51.75-4.23,3.35C98.4,64.69,97.82,65.54,98,64.07Zm.54,1.53c-.16.08-.26.14-.13-.29,2.27-2.31,2.53-3.59,6.11-4.13,1.21-.13,3.92-.36,5,1.27.06.08.6.62.63.7.71,2.48,1.18,3.25.61,4.17a2.48,2.48,0,0,1-1.66.42c-1.36-.43-1.88-1-1.8-1.84C107.51,63.34,103.26,63.36,98.5,65.6Z" transform="translate(-1.26 -0.59)"/><path class="cls-4" d="M106.61,176.22a20.14,20.14,0,0,0-.3-3c-1.14-7.18-5.73-15.48-9.42-20C86.13,140,80.55,136.46,63.22,140.61c-.29.07-5.94,1.57-9.12,2.53a16.41,16.41,0,0,0-2.19.85c-2,.67,15.32-4.76,22-4.72.32,0,5.85-.09,10,2.15,3.61,1.94,13.83,10.5,19.12,22.57a56.85,56.85,0,0,1,3.59,12.23" transform="translate(-1.26 -0.59)"/><line class="cls-2" x1="49.31" y1="144.08" x2="49.31" y2="144.08"/><path class="cls-4" d="M55.33,143c-6.61,1.81-12.95,5.93-17.62,7s-10.2.29-12.29-3.77a29.67,29.67,0,0,1-2.69-8.69c-.08-.56-.14-1.11-.19-1.65,0,0,.08-.43.24.54.46,2.92,1.83,9.76,4.4,11.58,4.39,3.12,9.46,2,13.56.62,3.07-1,6.58-3,9.19-4,2.27-.82,4.75-1.52,4.75-1.64" transform="translate(-1.26 -0.59)"/><path class="cls-4" d="M122.64,198.09c-2.78-2.15-6-4.06-7.85-5.66s-5.92-5.82-3.15-7.54c1.15-.71.64-.43.15.89-1.1,3,2.72,6.21,4.61,7.44,1.41.93,3,2,4.33,2.67.74.38,1.75.7,1.92,1.07a1.15,1.15,0,0,1,0,.94" transform="translate(-1.26 -0.59)"/><path class="cls-4" d="M119.18,195.07c-2.56,1-5.14,2.38-6.94,3s-6,.73-5.8-1.39c.13-1.17-.28.08.55.78,1.31,1.11,4.77.45,6.42-.14a42.16,42.16,0,0,0,5-2.22c.65-.39.55.09.55,0" transform="translate(-1.26 -0.59)"/><path class="cls-4" d="M120.55,104.8a49,49,0,0,1-1.54,7.12c-.77,2.4-1.31,4.55-5.56,5.21-.24,0-.84.43-.59,0a12.23,12.23,0,0,1,2.35-.88c2.33-.84,3.1-3.47,3.59-5.2a42.09,42.09,0,0,0,1.06-5.51c.07-.77.6-.5.55-.54" transform="translate(-1.26 -0.59)"/><path class="cls-4" d="M122.57,105.85c-2-2.62-5.44,2.59-6.43-2.11-.81-3.82-.46-6.19,1.86-10a25.35,25.35,0,0,1,4.63-5.55,68.93,68.93,0,0,0-4.82,7,11.94,11.94,0,0,0-.91,9.29c.86,2.25,4.26-1.16,5.73.8" transform="translate(-1.26 -0.59)"/><path class="cls-4" d="M122.63,116.07a29.78,29.78,0,0,0-9.27.93c-3.71,1-7,3.19-7.61,6.75a29.46,29.46,0,0,0,0,9.09c.08.56.19,1.11.3,1.63,0,.05.91,1.18.55.27-.91-2.33-1.11-11.14.81-13.65,3.27-4.27,10.88-4.78,15.21-4.66" transform="translate(-1.26 -0.59)"/><path class="cls-5" d="M122.8,144.76c.17,0-.16-.34,0-.36-15,.87-18.06-9.84-18-23.82a7.42,7.42,0,0,0-3.78-6.89c-2.9-1.7-5-3-12.38-4.28.41-.83.74-2.31,1.32-2.65s2.74.36,3.41.47c1.28.22,2.53.67,3.79,1l.37-.32a10.69,10.69,0,0,1-2.75-6c-.66-3.94-1-7.74,1.42-11.29.7-1,.45-1.68-.78-1.52-2.49.31-3.78,0-4.88-1.66-.85-1.3-2.33-.39-2.15,1.17.42,3.46-2.48,4.75-3.25,5.23-2.37,1.47-2.37,1.75.59,2.58.78.22,2,.13,2.18,1,.68,4,1.32,6.21,1.46,8.63.06.94-.62,1.74-1.08,2.79s-.24,1.18.92,1.33a34,34,0,0,1,11.46,4c2.77,1.52,3.53,4.06,3.6,7,.05,2,0,15.15,5.26,19.78C115.79,146.42,122.69,144.27,122.8,144.76Zm-34-44.93c-.59-3.52-.59-3.52-3.25-4.09-1-.21-1.46-.57-.47-1.09,2.07-1.47,4.26-2.4,3.93-6.08-.12-1.3.93-.93,1-.87,1.5,1.88,2.17,2.13,4.65,2,.25,0,1.36-.2.66,1.1-2.55,4.77-1.19,11.84-.21,14,1.81,3.86,1.37,2.34-1.36,2a18.3,18.3,0,0,1-1.88-.35c-.92-.25-1.81-.48-2.05-1.37C89.39,103.37,89.08,101.38,88.83,99.83Z" transform="translate(-1.26 -0.59)"/><path class="cls-5" d="M109.57,93.47c2.47-.49,10.5-1,13-6.87a3.43,3.43,0,0,0,.11-.86c-.44,0-.67.28-1,.43a.31.31,0,0,0-.13.21c-.51,3.21-3.14,5.2-9.62,6.35a11.14,11.14,0,0,1-3.64.25c-.1.79.94,1.44,1.67,2a14.85,14.85,0,0,1,2.78,2.65c2.93,3.38,5.53,15.27-6.93,15.78a5.2,5.2,0,0,1-3.75-1.69c-.36,2.65,5,3.5,6.06,6.4a5.94,5.94,0,0,1,.3,1.49c.09-.32.24.19.23-.1,0-.12-.12-1-.13-1.16-.21-1.85-3.44-3.74-4.07-4.25-.31-.15-1.84-1.2-1.74-1.14,4.48,2.76,10.38-.83,11.73-3.57,3.15-6.42,0-11.66-4.18-14.78C110.08,94.46,108.85,93.61,109.57,93.47Z" transform="translate(-1.26 -0.59)"/><path class="cls-5" d="M123.28,80.56c-.18-.11-.48-.28-.59-.21a33,33,0,0,0-3.27,2.3c-2.62,2.23-8.71,5.87-12.19,6.32-1.24.15-2.46.56-3.68.62-1.82.09-.42-4.6-4-4s-7.91-2.46-10.41-5c-.62-.64-.62-.64-1-.59-1.3.22-1.61,1.49-2,2.64-3.13,8.69-3.37,8.32-4.6,9.3a5.83,5.83,0,0,1,.81-5.14c1.72-2.3,1.48-3.17-1.47-3.4a3.79,3.79,0,0,0-1,0c-4.46.94-7.51-1.11-9.67-4.94-.84-1.46-1.91-2-3.44-1.26a5.82,5.82,0,0,0-2.57,3.69c-.72,2.51-1.67,4.08-4.7,5a8.8,8.8,0,0,1-3.38.29c-.38,0-.46.39-.61.37s-.06-.54-.48-.57a7.22,7.22,0,0,1-3.38-1.28c-1.37-.89-2.49-2-2.29-3.84a2,2,0,0,0-2.2-2.22c-1.64.23-2.35,1.11-3.74,2.24-2.14,1.75-4.19,3.66-7.4,2.4a16.05,16.05,0,0,1-4.25-2.53c-.52-.43-1.17-1-1.86-.86-.51.13-1.08.48-1.13,1.68-.21,5-1.51,7.74-6.66,9-1,.25-2.26.69-2.06,1.6.11.47.86.79,1.48,1.61,1.83,2.4,3.79,4.82,2.59,9.32-.67,2.49-.09,3.84,3.45,2.8a7.58,7.58,0,0,0,3-1.73c2.68-2.53,4.15-2.71,5.25-1.45.55.62,2.4,2.38-2,7.07a30.73,30.73,0,0,1-6.45,5c-3.66,2.26-6.62,4.72-6.84,9.17a28.56,28.56,0,0,0,.68,8.19c.71,2.79,1.52,5.37,3.41,7.39a20.33,20.33,0,0,0,10,5.92,29.13,29.13,0,0,0,19.67-2.19c4.91-2.25,9.68-4.8,14.51-7.21.52-.27,1-.53,1.58-.75a25,25,0,0,1,14.56-2c2.3.41,7.91,5,9.61,6.78a47.22,47.22,0,0,1,8.24,12.71c2.77,7.51,3.54,5.6,3.75,14.38.19,7.89-2.76,14.58-3.26,18.71-.91,7.42.34,10.78,1.49,13a1,1,0,0,0,1.56.29,2.88,2.88,0,0,0,.4-1.36c.77-9.78,4-11.69,6.43-13.13,1.89-1.13,2.7-1.31,4.15-2.73.72-.7-.29-1.44-1.69-1.9-1.73-.56-3.07.32-.8-2.06a15.53,15.53,0,0,0,2-2.8c2.16-4.18,2-6.56,1.78-7.67-.19-.85-1.92-.32-2.83,0-3.75,1.44-3.8.31-2.44-1.78,2.2-3.39,2.75-7.72,2.65-12.74,1.25,3.49,6.09,14.8,5.69,14.66-1.2.61-1.84,1.08-1.8,2.3a12,12,0,0,0,2.18,6.23c.61.86.78.55.78.55a16.9,16.9,0,0,1-2.4-6.74,1.56,1.56,0,0,1,1.43-1.78c.91-.05.56,0,0-1.64s-4.47-10.86-5.51-14.32c-.09-.3.77-1.24,1-1.51a14.29,14.29,0,0,1,1.32-1.13c.73-.74.55-1.89.26-3.17-.77-3.42-5.37-1.29-10-1.74-4-.39-7.64-5.08-10.31-8.51-1.44-1.84-3.17-3.32-4-5.76-1.06-3-1.46-4.06,2.36-4.73,1.46-.26,4.56-1.15,5.25-2.29,1.19-2,.5-3.82-.35-5.31-1.41-2.46-5.56-4.8-15.1-5.33-.94,0-2.87.11-3.35-.22s-.65-.77.55-4.47a10.3,10.3,0,0,0,.43-4.92c-.25-1.69-.73-3.33-2-4.24-.87-.64-1.9-1.39-2.8-2-1.61-1-2-1.76.53-3.16,3.69-2.09,5.83-7.24,7.06-11.36.75-2.5,1.3-1.76,3.32.15A6.08,6.08,0,0,0,91,83c2.91,1.89,5.28,3.72,9,3.37.59.82-2.78,5.66-2,12.31.39,3.46,1.24,9.37,5.63,10.9,2.81,1,6.52-1.27,7.12-3.78s.44-4.17-.89-6.19a13,13,0,0,0-4-3.65c-.89-.59-1.76-1.24-2.6-1.92a2.29,2.29,0,0,1-.78-2.7c.36-1,3-1.44,3.31-1.5a24.11,24.11,0,0,0,8.52-3c1.73-1,8.47-5.75,8.68-6S123.33,80.59,123.28,80.56ZM82,99.38a5.63,5.63,0,0,1,1.82,4.42c0,1.23.3,1.35-.13,1.21-.35.46-3.05-1.65-2.6-3.8C81.59,98.74,81.66,99.1,82,99.38Zm-1-7.23c0,.52-2.4,1.91-2.9,2.3-1.21,1-.86,1-.24,1.7.36.37,1.92,1.61,2.31,1.95,1.2,1.07,1,.14.35,3.84-.17,1,.89,2.62,2.21,3.35s-.12.81-1.13.74a2.59,2.59,0,0,1-1.45-.63c-1.34-1.1-2.06-2.12-3.65-2.67-3.86-1.35-7.72,3.38-7.47,7.07.23,3.4,3.28,6.36,6.33,4.89,1-.49,1.58-1.26,2.16-2.85.48-1.31,1.11-3.59,1.86-4.31s3-.82,3.42-.09,0,.77-.26,2.74c-.24,1.71-.17,2.45-1.87,6-1.08,2.24-3.67,2.83-6.43,2.42a11.38,11.38,0,0,1-5.09-2.25,1.82,1.82,0,0,0,.46.81c1,.84,1.68,1.69,5.68,2.22a6,6,0,0,0,5.84-2.67c1.62-3.42.74-3.33,4.51-3.24,4,.08,13.3,1,15.5,5,.55,1,1.72,2.32.65,4.51-.52,1.07-3.24,1.88-5.08,2.23-.57.11-1.13.3-1.71.39-1.26.18-2,.9-1.88,2.06A12.64,12.64,0,0,0,95.94,134c2.5,3,6.62,9.23,10.4,10.58,6.14,2.2,10.67-1.2,11.69,1.39a4.4,4.4,0,0,1,.42,2.93c-.16,1.13-.9.93-1.78,1.75a3,3,0,0,0-1.28,2.67,31.78,31.78,0,0,1-1,9.38c-.58,1.79-2.59,4.66-2.6,5.07,0,.82.36,1.27,1.25,1l.23-.09c2.48-.87,4.66-2.12,4.8-.12a11.37,11.37,0,0,1-.51,3.31c-1.16,4.67-6.16,8.36-4.86,8.49s4.83.56,3.84,1.46c-1.26,1.16-2.15,1.39-4.23,2.64-4.24,2.57-4.92,5.81-5.68,10.16a36.31,36.31,0,0,1-.65,3.72c-.56,1.66-2.24-1.78-2.52-4.5-.1-1-.21-1.9.21-6.29.72-7.47,2.84-9,3.2-14.77.53-8.67,1.3-9.24-4-21.32A60.42,60.42,0,0,0,94.48,139c-2.35-2.49-6.83-5.82-10.47-6.44-4.05-.7-6.69-.09-10.56.81A30,30,0,0,0,67,136.07c-4.38,2.21-8.48,4.4-12.94,6.46a24.74,24.74,0,0,1-6.91,1.71c-4.31.63-8.55.21-11.87-2.75a11.08,11.08,0,0,1-2.9-11.07,13.48,13.48,0,0,1,9.27-9.12c4.36-1.3,16-4.46,17.18-4.87,4.61-1.59,5.36-2.17,6.19-4.28-1,1.71-3.05,2.47-6.18,3.59-4.05,1.46-16.56,4.84-18.61,5.48-6,1.87-10.16,8.68-8.83,14.75.3,1.34,2.28,5.75,6,7.64a19,19,0,0,0,11.24,1.06,26.29,26.29,0,0,1-13.87.47C29,143.58,23.59,140,22,134.22A26.89,26.89,0,0,1,21,122.85c.47-2.93,2.33-5,4.77-6.76,3-2.11,4.87-3,7.51-5.39,1.78-1.61,4.35-5,3.75-6.76-1.5-4.34-4.72-2.22-6.94,0a8.41,8.41,0,0,1-3.8,1.78c-2.28.28-2.21-1.49-1.8-3a8.77,8.77,0,0,0-.14-4.83,12.25,12.25,0,0,0-2.8-4.67c-1.4-1.23-1.53-2,1-2.45A7.59,7.59,0,0,0,28.65,85c.22-.86.39-2.79.52-3.52.33-1.89,1.32-1.15,2.2-.51a23.49,23.49,0,0,0,4.09,2.5,7.08,7.08,0,0,0,3.39.6c1.88-.12,5.91-4.11,7.54-4.85a1.57,1.57,0,0,1,2.32,1.4,4.73,4.73,0,0,0,2.17,4A9.69,9.69,0,0,0,55,86.34c.07,0,.11.19.15.39.33-.22.29-.11.33-.06a3.43,3.43,0,0,1,.07.36c.14-.23.29-.54.39-.53,2.11.31,5.84-.36,7.47-2.43.81-1,1.65-3.57,2.22-4.77.9-1.85,2.92-2.45,3.88-.68,2.36,4.31,4.8,6.21,10.2,5.62,2.41-.27,3.87.39,2,2.7C80.6,88.19,80.93,90,81,92.15Zm-1.6,14.56c-1.38.7-2.07,4-2.7,5.48a2.66,2.66,0,0,1-2,1.9c-1.36.23-3.32.16-4.42-2.62a6.81,6.81,0,0,1-.16-4.43c.4-1.41,2.93-4.07,4.58-4,2.49-.13,3.82,1.69,5.13,3a3,3,0,0,0,2.65.58c.64-.12,1.17-.45,1.28-.4.31.12,0,1.61-.3.66-.1-.32-1.83-.29-1.91-.35A2.71,2.71,0,0,0,79.4,106.71Zm23-12.61c.73.67,5.72,3.86,7,5.46,2.7,3.42,1.17,10.41-5.22,9.59-3.49-.45-5.58-6.81-5.81-10.84-.28-1.6.17-6.78,2.41-11.78.2-.46,1.16,1.5,1.57,3.19S100.43,92.34,102.36,94.1Z" transform="translate(-1.26 -0.59)"/><path class="cls-5" d="M45,99.44a9.15,9.15,0,0,1,.64,4.48,5.88,5.88,0,0,1-1.45,3.58c.08.1.36,0,.44.11a3.65,3.65,0,0,0,1-1.78,8.89,8.89,0,0,0-.71-7.24C44.83,99.06,44.79,98.76,45,99.44Z" transform="translate(-1.26 -0.59)"/><path class="cls-5" d="M73.05,96.53c-.23,1-.53,2-1,3.54,1.63-2.24,2.11-4.17,1.6-6.32A26.09,26.09,0,0,0,73.05,96.53Z" transform="translate(-1.26 -0.59)"/><path class="cls-5" d="M47.38,87a4.08,4.08,0,0,1-1.59-2.37.22.22,0,0,0-.31-.07c-.57.44-1.75,1.71-1.94,1.89-1.62,1.48-2.53,2.14-4.78,2A14.51,14.51,0,0,1,35,87.56c-2.34-1-2.6-1.17-2.65,1.34a3.46,3.46,0,0,1-1.29,2.52,7.82,7.82,0,0,1-5.34,1.15c-1-.08-.95.74-.07,1.24,2,1.11,2.88,3.51,2,5.22-.62,1.15.38,1.48,1.54.78a9.55,9.55,0,0,1,6.26-1.55c3.78.41,5.8,2.26,5.48,6.4-.18,2.33-.76,5-3.4,6.28-.13.07-.12.58,0,.84,0,.11.45.22.63.15,2.62-.92,5.55-5.13,5.5-8a36.35,36.35,0,0,0-1.25-8.58c-.65-3.36,1-4.71,4.66-7.84C47.09,87.4,47.5,87.07,47.38,87Zm-17,11.51c-1,.55-2.66,1.83-2.35.37a5.14,5.14,0,0,0,.31-1.69A3.59,3.59,0,0,0,27.65,95c-.43-.81-2-1.75-1.74-1.73A15.72,15.72,0,0,0,29.62,93a1.38,1.38,0,0,1,.61,0c.33.09.65,1,.82,1.33.44.75,1.24,2.2,1.6,3S31.9,97.68,30.37,98.52Zm4-.86a1.77,1.77,0,0,1-1-.1,8.12,8.12,0,0,1-1.27-2.23,15.48,15.48,0,0,1-1.17-2.51.86.86,0,0,1,0-.28c.06-.27,1.08-.87,1.31-1.12.69.53,3.33,5.33,3.69,6.33C35.93,97.85,35,97.6,34.33,97.66Zm3.7.65c-.39-.12-1.32-.37-1.52-.72-1-1.7-2.61-4.55-3.74-6.26a.88.88,0,0,1-.19-.58,20.68,20.68,0,0,0,.21-2.81c0-.14.07-.48.38,0a62,62,0,0,1,3.68,5.67,22.23,22.23,0,0,1,2.27,5.17A3.38,3.38,0,0,0,38,98.31Zm5.11,4.09c.1,2,.44,3.38-2.4,7-.39.49-1,.43-.83.1a12.88,12.88,0,0,0,1.47-5.56,13.18,13.18,0,0,0-.11-1.75c-.08-1-1.75-4.15-1.8-4.31-1-3.16-4.57-8.2-6.11-10.42a33.75,33.75,0,0,1,3.5,1.22,25.59,25.59,0,0,1,2.21,3.15c.86,1.48,1.74,2.74,2.57,4.45A15.75,15.75,0,0,1,43.14,102.4Zm.48-12.27C42,91.85,41.55,92.51,42,95.72c0,.23,0,.23-.27-.24-.58-.84-3.44-5.81-4-6.67-.09-.14,1.89.49,3.58-.17a4.06,4.06,0,0,0,1.24-.7C42.8,87.77,43.74,90,43.62,90.13Zm2.82-2.75c-.56.53-1.62,1.43-2.26,2.17-.17.2-1-1.64-1-2a8.32,8.32,0,0,1,2.05-2.14s.18,0,.23,0,0,0,0,0,0,0,0,0S46.52,87,46.52,87.1A.35.35,0,0,1,46.44,87.38Z" transform="translate(-1.26 -0.59)"/><path class="cls-5" d="M75.23,88.62c-1.84-.33-3.87-.46-5.09-2.49-1.36-2.24-1.79-2.17-2.25.39-.32,1.78-2.12,3.13-3.74,4s-1.42,1.43-.59,2.86c2.58,4.47,1.5,9.48-3,11.84a10.14,10.14,0,0,1-7.83.34c-2.13-.74-4.67-3.33-6-6.23a10.26,10.26,0,0,0,6,7,9.83,9.83,0,0,0,9.2-1A14,14,0,0,0,64.39,103c1.77-2.47,1.66-5.24,1-7.93a7.91,7.91,0,0,0-1.16-2.48c-.73-1,.24-1.29.49-1.4.51-.22,1-.59,1.22-.45a3.66,3.66,0,0,1,1.23,1.36c2.48,4.5,2.07,11.93-5.73,15.55A14.79,14.79,0,0,1,55.17,109c1.68.11,3.49.38,4.91-.25,5.63-2.51,7-3.81,8.62-7.83.2-.5.78-.82,1.06-1.3a12.17,12.17,0,0,0,1.52-2.73,5.41,5.41,0,0,0-.76-4.81,12.6,12.6,0,0,1-1.35-3.81,6.36,6.36,0,0,1,0-2.13A7.53,7.53,0,0,0,72.63,89a15.83,15.83,0,0,0,2.59.51c.17,0,.18-.11.25-.31S75.4,88.65,75.23,88.62Zm-4.5,5.93c.13-.15.22-.1.28.16a5.63,5.63,0,0,1-.15,2.2A6.52,6.52,0,0,1,69,99.61c-.29.06-.19-.38.06-1.65a6.28,6.28,0,0,0,0-2.41C69,95.4,69.92,95.5,70.73,94.55Zm-.59-1.61c.25.6.31.78.2,1.06a1.2,1.2,0,0,1-1.45.61,24.52,24.52,0,0,0-1.78-4c-.45-.66,0-.91.35-1.42,1.4-2,1.06-.86,1.43.33C69.37,91.05,69.66,91.75,70.14,92.94Z" transform="translate(-1.26 -0.59)"/><path class="cls-5" d="M49.86,94.09c-1.42,4.23,1.25,7.73,5.8,8.06a5.6,5.6,0,0,0,3.73-.91c1.85-1.46,2.22-5.78.15-7.49-1.81-1.5-4-3.18-3.78-5.69a4.93,4.93,0,0,0-.11-1.1c-.08.14-.16.24-.21.23s-.14-.28-.2-.53c-.2.14-.56.42-1.19,1A14.14,14.14,0,0,0,49.86,94.09Zm5.28-6.32a7,7,0,0,0,.94,3.41c.88,1.09,2.46,2.2,3.35,3.29a3.41,3.41,0,0,1,.81,2.39c.09,3.17-1.25,5.6-5.7,4.66-3.63-.76-4.93-4-4.19-7a18.42,18.42,0,0,1,2.34-4.75C53.38,88.77,55.14,87.16,55.14,87.77Z" transform="translate(-1.26 -0.59)"/><path class="cls-6" d="M135.15,62c0-.65,2.28-1.16,2.37-1.18a6.66,6.66,0,0,1,.79,0c1.18,0,3.89,3.49,1.63,3.46a5.4,5.4,0,0,0-.61,0c-2.23.26-1.35,3-1.69,3.36s-1.42.3-1.79.4a2.26,2.26,0,0,1-1.53-.59c-.47-1,0-1.51.21-2.13a8.57,8.57,0,0,0,.26-3.06c-.08-.76-.93-2.19-.84-3a3.89,3.89,0,0,1,2.42-3s.2-.06.33-.1,1.05,4.64,1.07,4.64" transform="translate(-1.26 -0.59)"/><path class="cls-2" d="M137.14,60.91a40,40,0,0,1-.77-4.65" transform="translate(-1.26 -0.59)"/><path class="cls-6" d="M138.07,60.91c-.32-.34,2.61,1.9,2.61,3.07" transform="translate(-1.26 -0.59)"/><path class="cls-4" d="M122.48,79.44a2.51,2.51,0,0,0,.49,1.33c2.14,3.2,10.63,7.24,11.16,7.1a24.05,24.05,0,0,0,2.78-3c2.08-3.37-1.33-5.16-3.2-5.09-.16,0-.19,0-.18-.18.3-4.31.94-6,1.47-7a4.45,4.45,0,0,1,1.87-2,.4.4,0,0,1,.22,0l.79,0c.66,0,1.7-.43,1.84-1.16a1.21,1.21,0,0,0-1-1.46,27.46,27.46,0,0,0-4.33-.16c-.13,0-.26-.25-.4-.3l-.41-.1-.29,0a7.21,7.21,0,0,0,.92-1.87c.82-3.25.64-5.66-3.79-9.74-.63-.59-7.37-5.68-8-6.15C122.38,49.61,122.48,69.14,122.48,79.44ZM133,67c-.1.2-.15.32-.27.37a15.31,15.31,0,0,0-2.36,0c-.22,0-.27-.06-.25-.24.57-5.12-.12-6.9-1.34-9.08-.61-1.05-5.59-6.92-5.66-7.43l.08,0c.07,0,3.43,2.56,4.18,3.21s1.83,1.45,2.67,2.24C133.61,59.54,135.13,62.2,133,67Zm.78,1.18c-3.13.43-7.6,3.87-7.76,4l-.06,0a20.11,20.11,0,0,1,3.89-4.31c.08-.07,2.88-.5,4,.12C134,68.11,134,68.15,133.82,68.2Zm-.63,10.53a2.16,2.16,0,0,1-.47,1.51c-.06.05-.18.13-.22.11a5.62,5.62,0,0,1-.83-.36c-.1-.06-.06-.31,0-.42A15,15,0,0,1,134,72.74a5.9,5.9,0,0,1,2.26-2.11,1.3,1.3,0,0,1-.18.15C135.27,71.25,133.58,73.32,133.19,78.73Zm-.39,8.19s.53-.93.61-1.11c1.23-2.57.7-3.93.25-4.49l-.58-.71s0,0,0-.06a1.09,1.09,0,0,1,.72-.39c1-.25,4.48,1,2.85,4.36A5.77,5.77,0,0,1,132.8,86.92Zm-7.54-5.15a7.57,7.57,0,0,1,1.06-6.31c1.68-2.61,6.8-4.79,9-4.81l0,.06a9,9,0,0,0-1.11,1c-2.39,2.6-2.82,5.49-3.05,8.13a.17.17,0,0,1-.1.13l-.71.09c-.38,0-.76.08-1.13.14a.4.4,0,0,0-.24.18.22.22,0,0,0,.08.22c.07,0,.18,0,.28,0l.17,0c2.79-.83,4.85,1.35,4.15,3.72-1.32,4.44-7.1-1.26-7.38-1.45C125.81,82.49,125.42,82.24,125.26,81.77Zm.3-8.38c1.23-1.41,6-4.82,9-5a18.46,18.46,0,0,1,4.27.15.8.8,0,0,1,.5.94c-.06.47-.8.88-1.34.87s-1.05,0-1.56-.09c-5.29.12-11.11,3.15-11.81,8.53a11.45,11.45,0,0,0-.16,2.67c-1.28-2-1,.35-1.14-2.32C123.1,74.57,123.48,75.76,125.56,73.39ZM122.77,50.5c1.5,3.48,6.88,7.38,7,12a21,21,0,0,1,0,4.76c0,.08,0,.18-.07.22-3.84,3.09-6.57,8.18-6.74,9.17C122.93,68,122.77,59.26,122.77,50.5Z" transform="translate(-1.26 -0.59)"/><path class="cls-4" d="M138.71,176.29a20.14,20.14,0,0,1,.3-3c1.14-7.18,5.74-15.49,9.42-20,10.76-13.2,16.34-16.73,33.68-12.59.28.07,5.93,1.58,9.11,2.53a15.37,15.37,0,0,1,2.2.86c2,.66-15.34-4.77-22-4.73-.31,0-5.85-.09-10,2.15-3.61,1.95-13.83,10.5-19.12,22.57a57.69,57.69,0,0,0-3.59,12.23" transform="translate(-1.26 -0.59)"/><path class="cls-4" d="M190,143.08c6.61,1.81,12.95,5.93,17.62,7s10.2.3,12.29-3.77a29.6,29.6,0,0,0,2.69-8.68c.08-.56.14-1.12.19-1.65,0-.05-.08-.44-.24.53-.46,2.93-1.82,9.76-4.4,11.59-4.39,3.11-9.45,2-13.55.62-3.08-1.05-6.6-3.05-9.2-4-2.27-.82-4.75-1.52-4.75-1.63" transform="translate(-1.26 -0.59)"/><path class="cls-4" d="M122.69,198.17c2.77-2.16,6-4.07,7.84-5.66s5.93-5.82,3.15-7.55c-1.15-.71-.63-.42-.15.89,1.11,3-2.72,6.21-4.61,7.45-1.41.93-3,2-4.32,2.66-.75.39-1.76.71-1.93,1.08a1.09,1.09,0,0,0,0,.94" transform="translate(-1.26 -0.59)"/><path class="cls-4" d="M126.15,195.14c2.55,1,5.13,2.38,6.93,3s6,.72,5.8-1.39c-.13-1.17.28.07-.55.77-1.31,1.11-4.77.46-6.42-.14a41.28,41.28,0,0,1-5-2.22c-.65-.38-.55.09-.55,0" transform="translate(-1.26 -0.59)"/><path class="cls-4" d="M124.78,104.87a48.71,48.71,0,0,0,1.54,7.12c.76,2.4,1.31,4.56,5.55,5.21.24,0,.85.44.59,0a12.38,12.38,0,0,0-2.35-.87c-2.33-.84-3.1-3.47-3.58-5.2a42.52,42.52,0,0,1-1.07-5.51c-.06-.77-.6-.5-.55-.54" transform="translate(-1.26 -0.59)"/><path class="cls-4" d="M122.75,105.93c2-2.62,5.44,2.58,6.43-2.11.81-3.82.47-6.19-1.86-10a25.82,25.82,0,0,0-4.62-5.56,71.3,71.3,0,0,1,4.81,7,11.94,11.94,0,0,1,.91,9.29c-.86,2.25-4.26-1.15-5.72.8" transform="translate(-1.26 -0.59)"/><path class="cls-4" d="M122.7,116.14a30.06,30.06,0,0,1,9.26.93c3.71,1,7,3.19,7.61,6.75a29.53,29.53,0,0,1,0,9.1c-.08.56-.18,1.1-.3,1.63,0,0-.91,1.18-.55.27.92-2.33,1.11-11.15-.81-13.65-3.27-4.28-10.87-4.78-15.2-4.66" transform="translate(-1.26 -0.59)"/><path class="cls-5" d="M135.75,141c5.24-4.63,5.2-17.79,5.25-19.79.07-2.91.83-5.45,3.6-7a34.31,34.31,0,0,1,11.46-4c1.17-.15,1.43-.19.92-1.33s-1.14-1.84-1.08-2.79c.15-2.42.78-4.67,1.47-8.62.14-.83,1.39-.74,2.18-1,2.95-.82,2.95-1.1.58-2.57-.77-.49-3.67-1.78-3.25-5.24.19-1.56-1.3-2.46-2.14-1.16-1.11,1.69-2.4,2-4.89,1.65-1.23-.15-1.48.48-.78,1.53,2.38,3.54,2.08,7.35,1.42,11.28a10.6,10.6,0,0,1-2.75,6l.38.33a35.82,35.82,0,0,1,3.78-1c.68-.11,2.82-.81,3.41-.47s.92,1.82,1.33,2.66c-7.41,1.22-9.49,2.58-12.39,4.27a7.4,7.4,0,0,0-3.77,6.89c.1,14-2.94,24.69-18,23.83.16,0-.16.33,0,.35C122.63,144.34,129.53,146.49,135.75,141Zm19.75-35.92c-.24.88-1.13,1.11-2.05,1.36a15.93,15.93,0,0,1-1.88.35c-2.72.38-3.17,1.9-1.36-2,1-2.1,2.34-9.18-.21-13.94-.7-1.31.41-1.12.66-1.1,2.48.1,3.15-.14,4.65-2,.05-.06,1.09-.43,1,.87-.32,3.68,1.86,4.61,3.93,6.08,1,.52.53.89-.47,1.1-2.67.56-2.67.56-3.25,4.08C156.24,101.45,155.94,103.45,155.5,105.09Z" transform="translate(-1.26 -0.59)"/><path class="cls-5" d="M135.75,93.54c-2.47-.49-10.5-1-13-6.86a3.52,3.52,0,0,1-.1-.87c.43,0,.67.28,1,.44a.31.31,0,0,1,.12.21c.51,3.2,3.14,5.19,9.62,6.34a11.18,11.18,0,0,0,3.64.26c.1.79-.94,1.43-1.67,2a15.07,15.07,0,0,0-2.77,2.64c-2.94,3.38-5.54,15.27,6.92,15.78a5.2,5.2,0,0,0,3.75-1.69c.36,2.66-5,3.5-6.06,6.41a5.79,5.79,0,0,0-.29,1.48c-.09-.32-.25.19-.24-.1,0-.12.12-1,.14-1.16.2-1.85,3.43-3.73,4.06-4.25.31-.15,1.84-1.2,1.75-1.14-4.49,2.76-10.39-.83-11.74-3.56-3.15-6.43,0-11.66,4.17-14.79C135.24,94.53,136.47,93.68,135.75,93.54Z" transform="translate(-1.26 -0.59)"/><path class="cls-5" d="M122.37,80.88c.21.25,6.95,5,8.69,6a23.9,23.9,0,0,0,8.51,3c.33,0,3,.46,3.32,1.5a2.31,2.31,0,0,1-.79,2.7c-.84.67-1.7,1.32-2.6,1.92a12.83,12.83,0,0,0-4,3.64,6.94,6.94,0,0,0-.89,6.19c.6,2.51,4.32,4.77,7.12,3.79,4.39-1.54,5.25-7.44,5.63-10.91.75-6.65-2.62-11.49-2-12.31,3.69.36,6.05-1.47,9-3.37a3.77,3.77,0,0,0,.64-.39c2-1.91,2.57-2.65,3.32-.14,1.23,4.11,3.37,9.27,7.06,11.35,2.49,1.4,2.15,2.12.54,3.16-.91.59-1.94,1.35-2.81,2-1.25.92-1.74,2.55-2,4.24a10.36,10.36,0,0,0,.43,4.93c1.2,3.69,1.14,4.07.55,4.47s-2.41.17-3.35.22c-9.53.53-13.69,2.86-15.1,5.33-.85,1.49-1.53,3.34-.35,5.31.69,1.14,3.79,2,5.25,2.28,3.82.68,3.43,1.72,2.36,4.73-.86,2.45-2.6,3.92-4,5.76-2.67,3.44-6.28,8.12-10.32,8.52-4.61.45-9.22-1.69-10,1.73-.29,1.29-.47,2.43.27,3.18a15.6,15.6,0,0,1,1.31,1.13c.21.27,1.07,1.2,1,1.51-1,3.45-4.93,12.76-5.51,14.31s-1,1.59,0,1.64a1.56,1.56,0,0,1,1.42,1.79,17.05,17.05,0,0,1-2.39,6.73s.16.32.77-.55a11.89,11.89,0,0,0,2.18-6.22c0-1.22-.6-1.7-1.8-2.3-.4.13,4.44-11.17,5.69-14.67-.1,5,.46,9.36,2.65,12.75,1.36,2.09,1.31,3.22-2.44,1.78-.91-.35-2.64-.89-2.82,0-.25,1.11-.39,3.49,1.77,7.67a15.59,15.59,0,0,0,2,2.81c2.27,2.37.93,1.49-.8,2.06-1.39.45-2.41,1.19-1.69,1.9,1.45,1.41,2.26,1.6,4.15,2.72,2.42,1.44,5.66,3.35,6.44,13.14a2.8,2.8,0,0,0,.39,1.35,1,1,0,0,0,1.56-.29c1.15-2.25,2.4-5.61,1.49-13-.5-4.12-3.45-10.82-3.26-18.71.21-8.77,1-6.86,3.75-14.37a46.89,46.89,0,0,1,8.25-12.71c1.69-1.8,7.3-6.37,9.6-6.79a25,25,0,0,1,14.56,2c.54.23,1.06.49,1.58.75,4.84,2.41,9.61,5,14.51,7.21a29.19,29.19,0,0,0,19.67,2.2,20.42,20.42,0,0,0,10-5.93c1.89-2,2.7-4.6,3.41-7.39a28.18,28.18,0,0,0,.68-8.19c-.22-4.45-3.18-6.91-6.84-9.16a30.71,30.71,0,0,1-6.44-5c-4.43-4.68-2.57-6.44-2-7.07,1.1-1.25,2.57-1.07,5.25,1.46a7.6,7.6,0,0,0,3,1.72c3.53,1,4.11-.31,3.44-2.79-1.2-4.51.76-6.92,2.59-9.33.62-.82,1.37-1.14,1.48-1.6.2-.92-1-1.36-2.06-1.61-5.15-1.24-6.44-4-6.65-9-.06-1.2-.63-1.55-1.13-1.68-.69-.17-1.35.43-1.88.87a15.65,15.65,0,0,1-4.24,2.52c-3.21,1.26-5.26-.65-7.4-2.4-1.38-1.13-2.09-2-3.74-2.24a2,2,0,0,0-2.2,2.22c.2,1.86-.92,3-2.28,3.84A7.29,7.29,0,0,1,190.33,86c-.42,0-.3.55-.47.58s-.24-.42-.62-.38a8.75,8.75,0,0,1-3.37-.28c-3-.91-4-2.49-4.7-5a5.89,5.89,0,0,0-2.57-3.69c-1.54-.76-2.61-.2-3.44,1.27-2.17,3.82-5.21,5.87-9.68,4.93a3.35,3.35,0,0,0-1,0c-3,.22-3.2,1.09-1.47,3.39a5.86,5.86,0,0,1,.8,5.14c-1.23-1-1.47-.61-4.59-9.29-.42-1.15-.72-2.43-2-2.64-.34-.06-.34-.06-1,.58-2.5,2.57-6.67,5.64-10.4,5s-2.24,4.09-4.06,4c-1.22-.06-2.44-.46-3.68-.62-3.48-.45-9.57-4.09-12.19-6.31a29.87,29.87,0,0,0-3.26-2.3c-.12-.08-.42.09-.6.21S122.28,80.78,122.37,80.88Zm41.87,20.4c.45,2.15-2.25,4.27-2.59,3.8-.44.14-.14,0-.14-1.2a5.7,5.7,0,0,1,1.82-4.43C163.66,99.18,163.73,98.82,164.24,101.28ZM163.67,87c-1.92-2.3-.46-3,2-2.7,5.4.6,7.84-1.3,10.2-5.62,1-1.77,3-1.16,3.88.69.57,1.19,1.41,3.73,2.22,4.76,1.64,2.08,5.36,2.74,7.48,2.43.09,0,.24.3.38.53,0-.21.07-.35.07-.35s0-.16.33,0c0-.19.08-.37.16-.39a9.82,9.82,0,0,0,4.1-1.64,4.76,4.76,0,0,0,2.17-4,1.56,1.56,0,0,1,2.33-1.39c1.63.74,5.65,4.73,7.53,4.85a7.24,7.24,0,0,0,3.4-.61,22.78,22.78,0,0,0,4.08-2.5c.88-.64,1.87-1.38,2.2.51.13.73.3,2.66.52,3.53a7.61,7.61,0,0,0,6.13,5.76c2.55.48,2.42,1.22,1,2.44A12.38,12.38,0,0,0,221,98a8.69,8.69,0,0,0-.13,4.83c.4,1.46.47,3.24-1.81,3a8.42,8.42,0,0,1-3.79-1.78c-2.23-2.2-5.46-4.32-6.94,0-.61,1.76,2,5.16,3.74,6.76,2.64,2.38,4.5,3.28,7.52,5.4,2.43,1.7,4.29,3.82,4.76,6.75a26.87,26.87,0,0,1-1.07,11.37c-1.57,5.74-7,9.36-12.75,10.92a26.32,26.32,0,0,1-13.87-.46,19,19,0,0,0,11.24-1.07c3.69-1.89,5.66-6.29,6-7.64,1.33-6.07-2.86-12.88-8.82-14.74-2.06-.65-14.56-4-18.62-5.48-3.13-1.13-5.21-1.88-6.18-3.59.83,2.11,1.58,2.68,6.19,4.28,1.17.4,12.82,3.56,17.18,4.87a13.45,13.45,0,0,1,9.27,9.11,11.06,11.06,0,0,1-2.9,11.07c-3.31,3-7.56,3.39-11.87,2.76a25.09,25.09,0,0,1-6.91-1.71c-4.45-2.06-8.55-4.26-12.94-6.46a29.45,29.45,0,0,0-6.4-2.7c-3.87-.9-6.52-1.51-10.57-.81-3.64.63-8.12,4-10.48,6.44a61,61,0,0,0-8.37,12.47c-5.29,12.08-4.52,12.64-4,21.31.35,5.77,2.47,7.3,3.19,14.77.42,4.39.31,5.31.21,6.29-.28,2.73-2,6.17-2.51,4.5a33.2,33.2,0,0,1-.66-3.72c-.76-4.34-1.44-7.59-5.68-10.16-2.08-1.25-3-1.48-4.22-2.63-1-.91,2.54-1.34,3.84-1.47s-3.71-3.81-4.87-8.48a11.38,11.38,0,0,1-.51-3.32c.14-2,2.32-.74,4.8.12a1.7,1.7,0,0,0,.24.09c.89.24,1.26-.2,1.24-1,0-.4-2-3.28-2.6-5.07a31.71,31.71,0,0,1-1-9.37,2.93,2.93,0,0,0-1.28-2.67c-.88-.83-1.62-.63-1.78-1.76a4.41,4.41,0,0,1,.42-2.93c1-2.59,5.55.81,11.69-1.39,3.78-1.35,7.9-7.59,10.4-10.57a12.67,12.67,0,0,0,2.82-6.38c.14-1.16-.62-1.88-1.88-2.06-.58-.08-1.13-.28-1.71-.39-1.84-.35-4.56-1.15-5.08-2.23-1.06-2.19.1-3.52.66-4.5,2.2-3.93,11.46-4.87,15.49-5,3.77-.08,2.89-.18,4.51,3.25a6,6,0,0,0,5.85,2.66c4-.52,4.7-1.38,5.68-2.22a1.76,1.76,0,0,0,.45-.81,11.26,11.26,0,0,1-5.09,2.25c-2.76.41-5.35-.18-6.43-2.42-1.7-3.55-1.63-4.28-1.87-6-.28-2-.64-2.13-.26-2.75s2.53-.75,3.42.09,1.39,3,1.86,4.32c.58,1.59,1.14,2.35,2.16,2.84,3,1.47,6.1-1.49,6.33-4.89.25-3.69-3.61-8.41-7.47-7.07-1.59.56-2.31,1.57-3.65,2.67a2.46,2.46,0,0,1-1.45.63c-1,.07-2.49,0-1.12-.73S165,103,164.81,102c-.62-3.7-.86-2.78.34-3.84.4-.35,1.95-1.59,2.31-2,.62-.65,1-.73-.24-1.7-.5-.39-2.91-1.78-2.9-2.3C164.39,90.09,164.72,88.27,163.67,87Zm.07,19.62c-.07.05-1.81,0-1.9.34-.29,1-.62-.53-.31-.66.12,0,.64.28,1.29.4a3,3,0,0,0,2.65-.57c1.31-1.29,2.63-3.11,5.12-3,1.65-.13,4.18,2.53,4.59,3.94a6.91,6.91,0,0,1-.17,4.44c-1.1,2.78-3,2.84-4.42,2.61a2.65,2.65,0,0,1-2-1.89c-.63-1.46-1.32-4.79-2.7-5.49A2.7,2.7,0,0,0,163.74,106.63ZM143,89.8c.42-1.69,1.37-3.66,1.57-3.2,2.24,5,2.69,10.18,2.42,11.78-.24,4-2.33,10.4-5.82,10.85-6.39.82-7.91-6.17-5.22-9.6,1.26-1.59,6.25-4.79,7-5.45C144.89,92.41,142.65,91.37,143,89.8Z" transform="translate(-1.26 -0.59)"/><path class="cls-5" d="M200.33,99.51a9.15,9.15,0,0,0-.64,4.48,5.91,5.91,0,0,0,1.45,3.59c-.08.09-.35,0-.44.11a3.66,3.66,0,0,1-1-1.79,8.89,8.89,0,0,1,.7-7.24C200.49,99.14,200.53,98.83,200.33,99.51Z" transform="translate(-1.26 -0.59)"/><path class="cls-5" d="M172.27,96.6c.23,1,.53,2,.95,3.55-1.63-2.25-2.11-4.17-1.6-6.33A26.68,26.68,0,0,1,172.27,96.6Z" transform="translate(-1.26 -0.59)"/><path class="cls-5" d="M198.32,87.54c3.64,3.13,5.3,4.48,4.65,7.84a36.37,36.37,0,0,0-1.25,8.59c0,2.9,2.88,7.11,5.5,8,.18.06.6-.05.64-.16s.08-.77,0-.83c-2.65-1.29-3.23-4-3.41-6.29-.32-4.14,1.7-6,5.49-6.4a9.59,9.59,0,0,1,6.25,1.55c1.17.71,2.16.38,1.54-.77-.91-1.72,0-4.12,2-5.23.89-.49.93-1.31-.07-1.24a7.84,7.84,0,0,1-5.33-1.14A3.41,3.41,0,0,1,213,89c-.06-2.51-.32-2.33-2.66-1.33a14.5,14.5,0,0,1-3.75.92c-2.25.11-3.16-.55-4.77-2-.2-.18-1.38-1.45-1.95-1.88a.22.22,0,0,0-.31.06,4.09,4.09,0,0,1-1.59,2.38C197.82,87.15,198.23,87.47,198.32,87.54Zm14.35,9.85c.36-.8,1.16-2.24,1.61-3,.16-.28.48-1.23.81-1.32a1.42,1.42,0,0,1,.62,0,16.09,16.09,0,0,0,3.7.23c.3,0-1.31.92-1.74,1.73a3.63,3.63,0,0,0-.68,2.24A5.36,5.36,0,0,0,217.3,99c.31,1.47-1.35.19-2.35-.36C213.42,97.75,212.29,98.22,212.67,97.39Zm-3.24.43c.36-1,3-5.8,3.7-6.32.22.25,1.24.84,1.31,1.11a1.4,1.4,0,0,1,0,.29,15.45,15.45,0,0,1-1.17,2.5A8.06,8.06,0,0,1,212,97.64a2,2,0,0,1-1,.1C210.36,97.68,209.4,97.92,209.43,97.82Zm-3.23,1a22.23,22.23,0,0,1,2.27-5.17A60.54,60.54,0,0,1,212.16,88c.31-.45.38-.11.37,0a22.42,22.42,0,0,0,.21,2.81.88.88,0,0,1-.19.58c-1.13,1.71-2.7,4.56-3.73,6.27-.21.34-1.14.59-1.53.71A3.73,3.73,0,0,0,206.2,98.82Zm-2.52-2.48c.83-1.71,1.72-3,2.57-4.44a24.14,24.14,0,0,1,2.21-3.15,29.56,29.56,0,0,1,3.5-1.22c-1.54,2.21-5.13,7.26-6.11,10.42,0,.15-1.72,3.29-1.8,4.3A10.49,10.49,0,0,0,204,104a13,13,0,0,0,1.46,5.56c.17.33-.43.39-.82-.11-2.85-3.6-2.51-5-2.41-7A15.78,15.78,0,0,1,203.68,96.34ZM202.76,88a4.06,4.06,0,0,0,1.24.7c1.69.67,3.67,0,3.58.18-.55.86-3.41,5.82-4,6.67-.32.46-.3.46-.27.23.45-3.2,0-3.86-1.62-5.58C201.58,90.08,202.51,87.85,202.76,88Zm-4-.84c0-.07,1-1.54,1-1.65s0,0,0,0h0c.05,0,.19,0,.23,0a8,8,0,0,1,2,2.14c.07.32-.82,2.15-1,2a29.39,29.39,0,0,0-2.26-2.16A.37.37,0,0,1,198.8,87.17Z" transform="translate(-1.26 -0.59)"/><path class="cls-5" d="M169.85,89.27c.08.19.08.32.25.31a17.1,17.1,0,0,0,2.6-.52,7.59,7.59,0,0,0,3.49-2.83,6.63,6.63,0,0,1,0,2.13,12.76,12.76,0,0,1-1.35,3.82A5.39,5.39,0,0,0,174,97a12.17,12.17,0,0,0,1.52,2.73c.28.48.86.81,1.06,1.3,1.6,4,3,5.33,8.62,7.83,1.42.63,3.24.37,4.91.26a15,15,0,0,1-6.25-1.41c-7.8-3.62-8.21-11.06-5.72-15.56a3.55,3.55,0,0,1,1.22-1.36c.26-.14.71.23,1.22.46.25.11,1.22.38.49,1.39A7.76,7.76,0,0,0,180,95.1c-.68,2.69-.8,5.47,1,7.93a13.7,13.7,0,0,0,2.47,2.34,9.85,9.85,0,0,0,9.2,1,10.29,10.29,0,0,0,6-7c-1.32,2.9-3.87,5.5-6,6.24a10.19,10.19,0,0,1-7.83-.34c-4.54-2.37-5.62-7.38-3-11.85.82-1.43,1.17-2-.6-2.86-1.62-.81-3.42-2.17-3.74-4-.46-2.56-.89-2.63-2.25-.38-1.22,2-3.25,2.15-5.09,2.49C169.93,88.73,169.8,89.12,169.85,89.27Zm6.41,6.36a6.1,6.1,0,0,0,0,2.41c.25,1.26.35,1.71.06,1.65A6.57,6.57,0,0,1,174.46,97a5.42,5.42,0,0,1-.14-2.2c.05-.26.14-.31.27-.16C175.41,95.57,176.29,95.47,176.26,95.63Zm.17-6c.37-1.19,0-2.38,1.43-.34.35.51.8.76.35,1.42a25.4,25.4,0,0,0-1.78,4,1.19,1.19,0,0,1-1.45-.61c-.11-.28,0-.46.2-1C175.66,91.83,176,91.12,176.43,89.59Z" transform="translate(-1.26 -0.59)"/><path class="cls-5" d="M191.27,87.68c-.63-.53-1-.81-1.19-1-.05.25-.1.52-.2.54s-.13-.1-.21-.24a5,5,0,0,0-.11,1.11c.26,2.51-2,4.18-3.78,5.68-2.07,1.72-1.69,6,.15,7.5a5.67,5.67,0,0,0,3.74.91c4.54-.33,7.21-3.84,5.79-8.07A14,14,0,0,0,191.27,87.68Zm1.36,2.12A18.2,18.2,0,0,1,195,94.54c.74,3.09-.56,6.29-4.19,7.06-4.45.94-5.79-1.49-5.7-4.67a3.44,3.44,0,0,1,.82-2.39c.88-1.09,2.46-2.19,3.33-3.29a6.85,6.85,0,0,0,1-3.41C190.18,87.23,191.94,88.84,192.63,89.8Z" transform="translate(-1.26 -0.59)"/></g></g></svg>