<svg id="Слой_1" data-name="Слой 1" xmlns="http://www.w3.org/2000/svg" viewBox="0 0 225.82 166.15"><defs><style>.cls-1,.cls-2{fill:none;stroke:#fff;stroke-miterlimit:10;}.cls-1{fill-rule:evenodd;}</style></defs><title>white</title><path class="cls-1" d="M113.77,2.26c-.64.52-8,6.1-8.71,6.74-4.84,4.47-5,7.11-4.15,10.66a8.25,8.25,0,0,0,1,2.05l-.31.05c-.16,0-.31.07-.45.12s-.3.32-.45.32a31.83,31.83,0,0,0-4.73.18A1.29,1.29,0,0,0,94.9,24c.14.81,1.28,1.33,2,1.27.28,0,.57,0,.86,0a.66.66,0,0,1,.25,0,5,5,0,0,1,2,2.14c.58,1.1,1.29,2.89,1.61,7.62,0,.14,0,.18-.19.19-2-.07-5.79,1.89-3.51,5.58a27.21,27.21,0,0,0,3,3.29c.59.15,9.88-4.27,12.23-7.78a2.7,2.7,0,0,0,.53-1.45C113.77,23.56,113.88,2.17,113.77,2.26Zm-8.33,7c.91-.87,2-1.63,2.92-2.46s4.5-3.46,4.57-3.51l.09,0c-.07.56-5.52,7-6.2,8.14-1.33,2.39-2.09,4.34-1.47,9.94,0,.21,0,.27-.26.26a17.11,17.11,0,0,0-2.59,0c-.13-.06-.18-.19-.29-.41C99.91,16,101.58,13.05,105.44,9.24Zm-4.11,13.09c1.17-.68,4.24-.21,4.32-.13a22.15,22.15,0,0,1,4.27,4.71l-.08.05c-.16-.19-5.07-3.95-8.48-4.42C101.17,22.48,101.14,22.44,101.33,22.33Zm-2.4,3a1.63,1.63,0,0,1-.2-.17,6.44,6.44,0,0,1,2.48,2.31A16.48,16.48,0,0,1,103.76,35c0,.12,0,.39-.05.46a5.67,5.67,0,0,1-.91.39s-.18-.06-.24-.12a2.29,2.29,0,0,1-.52-1.65C101.61,28.14,99.77,25.87,98.93,25.36Zm-.67,15c-1.78-3.66,2-5,3.12-4.77a1.18,1.18,0,0,1,.79.43s0,0,0,.06l-.63.78c-.5.61-1.07,2.11.27,4.92.09.19.68,1.21.68,1.21A6.33,6.33,0,0,1,98.26,40.4Zm11.35-1.86c-.31.21-6.65,6.45-8.08,1.58-.77-2.58,1.49-5,4.54-4.06.07,0,.12,0,.19,0s.23.06.31,0a.22.22,0,0,0,.08-.24.36.36,0,0,0-.26-.19c-.41-.07-.82-.11-1.24-.16l-.77-.1a.19.19,0,0,1-.12-.14c-.24-2.9-.71-6.06-3.33-8.91a10.31,10.31,0,0,0-1.22-1.11l0-.07c2.37,0,8,2.42,9.82,5.27a8.32,8.32,0,0,1,1.16,6.91C110.55,37.9,110.12,38.17,109.61,38.54Zm3.28-4.09c-.12,2.93.15.35-1.26,2.55a12.65,12.65,0,0,0-.17-2.93c-.77-5.89-7.14-9.2-12.93-9.34-.56.05-1.13.09-1.7.1s-1.42-.44-1.48-.95a.89.89,0,0,1,.55-1,20.32,20.32,0,0,1,4.67-.17c3.26.26,8.48,4,9.83,5.53C112.67,30.81,113.09,29.51,112.89,34.45Zm.39-2.65c-.19-1.09-3.18-6.66-7.39-10a.45.45,0,0,1-.07-.24,22.7,22.7,0,0,1,0-5.21c.14-5.07,6-9.35,7.68-13.16C113.45,12.74,113.28,22.27,113.28,31.8Z" transform="translate(-0.66 -0.73)"/><path class="cls-2" d="M98.2,22.53c.43-.28,4.94,2.06,2.3-5.5a6.63,6.63,0,0,1,.82-3.27,16.8,16.8,0,0,0-1-2.33C98.22,7.35,85.9,7.91,86.17,18.82A1.47,1.47,0,0,0,86.65,20c.37.48,1.09.13,1.17.08,3.84-2.42,6.41-1.9,8-.73.42.29.44,1.85.65,2.26A1.94,1.94,0,0,0,98.2,22.53ZM86.53,18.09c.21-2.23.44-5.19,4-7.4s7.95-2,9.75,2.2c.11.29.44.79.42,1a7.36,7.36,0,0,0-.67,2.61c0,.25-.41-.46-.63-.79C98,13.59,93.17,14.49,91.77,15c-2,.72-1.65.83-4.64,3.67C87,18.77,86.37,19.7,86.53,18.09Zm.58,1.68c-.17.08-.28.15-.13-.33,2.48-2.52,2.76-3.92,6.68-4.51,1.33-.15,4.3-.39,5.45,1.39a9.62,9.62,0,0,1,.68.77c.78,2.71,1.3,3.55.68,4.56a2.74,2.74,0,0,1-1.82.46c-1.49-.48-2.07-1.09-2-2C97,17.29,92.33,17.31,87.11,19.77Z" transform="translate(-0.66 -0.73)"/><path class="cls-1" d="M96,140.89a21.53,21.53,0,0,0-.33-3.3c-1.25-7.86-6.28-17-10.31-21.9-11.79-14.46-17.9-18.33-36.88-13.79-.31.07-6.5,1.72-10,2.77a18.3,18.3,0,0,0-2.4.93c-2.21.73,16.78-5.21,24.08-5.17.34,0,6.41-.1,10.95,2.35,4,2.14,15.14,11.5,20.94,24.72A62.23,62.23,0,0,1,96,140.89" transform="translate(-0.66 -0.73)"/><line class="cls-2" x1="33.97" y1="105.61" x2="33.97" y2="105.61"/><path class="cls-1" d="M39.84,104.52c-7.24,2-14.17,6.5-19.29,7.69s-11.16.33-13.46-4.12a32.64,32.64,0,0,1-2.94-9.52q-.14-.91-.21-1.8s.09-.48.26.58C4.71,100.56,6.21,108,9,110c4.81,3.41,10.35,2.21,14.85.68,3.36-1.15,7.21-3.34,10.06-4.38,2.49-.89,5.2-1.66,5.2-1.79" transform="translate(-0.66 -0.73)"/><path class="cls-1" d="M113.54,164.84c-3-2.36-6.58-4.45-8.58-6.2s-6.49-6.37-3.46-8.25c1.26-.79.7-.47.17,1-1.21,3.3,3,6.8,5,8.15,1.55,1,3.33,2.19,4.74,2.92.82.42,1.92.77,2.11,1.17a1.22,1.22,0,0,1,0,1" transform="translate(-0.66 -0.73)"/><path class="cls-1" d="M109.76,161.53c-2.8,1.08-5.62,2.61-7.6,3.25s-6.6.79-6.35-1.53c.14-1.27-.31.08.6.85,1.43,1.22,5.22.5,7-.15a44.52,44.52,0,0,0,5.42-2.43c.72-.42.61.1.61,0" transform="translate(-0.66 -0.73)"/><path class="cls-1" d="M111.25,62.69a54.07,54.07,0,0,1-1.68,7.79c-.84,2.63-1.43,5-6.08,5.71-.26,0-.93.47-.65,0a13.7,13.7,0,0,1,2.57-1c2.56-.92,3.4-3.8,3.93-5.69a48,48,0,0,0,1.17-6c.07-.84.65-.54.59-.59" transform="translate(-0.66 -0.73)"/><path class="cls-1" d="M113.47,63.84c-2.21-2.87-6,2.83-7-2.31-.89-4.18-.51-6.77,2-11a27.7,27.7,0,0,1,5.06-6.08,77.09,77.09,0,0,0-5.27,7.68,13,13,0,0,0-1,10.17c.94,2.47,4.66-1.26,6.26.88" transform="translate(-0.66 -0.73)"/><path class="cls-1" d="M113.53,75a32.4,32.4,0,0,0-10.14,1c-4.07,1.07-7.65,3.5-8.34,7.4a32.53,32.53,0,0,0,0,10c.1.62.21,1.22.34,1.79,0,0,1,1.29.6.3-1-2.55-1.22-12.21.89-15,3.58-4.68,11.9-5.23,16.64-5.1" transform="translate(-0.66 -0.73)"/><path class="cls-2" d="M113.73,106.44c.17,0-.18-.36,0-.39C97.27,107,94,95.27,94.07,80a8.13,8.13,0,0,0-4.14-7.55c-3.17-1.85-5.45-3.34-13.56-4.68.45-.92.82-2.53,1.45-2.9s3,.39,3.73.51a38,38,0,0,1,4.15,1.12l.41-.36a11.63,11.63,0,0,1-3-6.56c-.73-4.3-1.06-8.47,1.55-12.35.77-1.14.5-1.84-.85-1.67-2.73.34-4.14,0-5.35-1.82-.93-1.42-2.55-.42-2.35,1.29.46,3.78-2.71,5.19-3.56,5.72-2.59,1.61-2.59,1.92.65,2.82.85.24,2.22.15,2.38,1.05.75,4.33,1.44,6.79,1.61,9.44.06,1-.68,1.91-1.19,3.06s-.27,1.29,1,1.45A37.55,37.55,0,0,1,89.55,73c3,1.66,3.86,4.45,3.94,7.63.05,2.18,0,16.59,5.76,21.66C106.05,108.26,113.6,105.91,113.73,106.44ZM76.52,57.25c-.63-3.86-.63-3.86-3.55-4.48-1.09-.23-1.61-.63-.52-1.2,2.27-1.61,4.66-2.62,4.3-6.65-.12-1.43,1-1,1.07-1,1.65,2.06,2.37,2.33,5.09,2.22.28,0,1.49-.22.73,1.2-2.79,5.22-1.31,13-.23,15.28,2,4.22,1.49,2.56-1.49,2.14a20.09,20.09,0,0,1-2.07-.38c-1-.28-2-.53-2.24-1.5C77.14,61.13,76.8,58.94,76.52,57.25Z" transform="translate(-0.66 -0.73)"/><path class="cls-2" d="M99.24,50.28c2.7-.53,11.49-1.06,14.17-7.52a3.26,3.26,0,0,0,.12-.95c-.47,0-.73.31-1.09.48a.34.34,0,0,0-.14.23c-.56,3.51-3.43,5.69-10.54,6.95a12.19,12.19,0,0,1-4,.28c-.11.86,1,1.57,1.83,2.13a16.4,16.4,0,0,1,3,2.9c3.21,3.7,6.06,16.72-7.58,17.28A5.71,5.71,0,0,1,91,70.21c-.39,2.91,5.49,3.83,6.63,7a6,6,0,0,1,.33,1.63c.1-.35.27.2.26-.11,0-.13-.14-1.15-.15-1.27-.23-2-3.77-4.09-4.45-4.66-.34-.16-2-1.31-1.91-1.24,4.91,3,11.37-.91,12.84-3.91,3.46-7,0-12.76-4.57-16.19C99.8,51.37,98.45,50.43,99.24,50.28Z" transform="translate(-0.66 -0.73)"/><path class="cls-2" d="M114.25,36.15c-.19-.12-.53-.31-.65-.23A33.36,33.36,0,0,0,110,38.44c-2.86,2.43-9.53,6.42-13.35,6.91-1.35.17-2.69.62-4,.68-2,.1-.47-5-4.44-4.38s-8.66-2.7-11.4-5.51c-.68-.7-.68-.7-1-.64-1.43.24-1.76,1.64-2.22,2.9-3.42,9.5-3.68,9.1-5,10.17A6.42,6.42,0,0,1,69.39,43c1.89-2.52,1.63-3.48-1.61-3.72a4,4,0,0,0-1.09,0c-4.9,1-8.23-1.21-10.6-5.4-.91-1.6-2.09-2.22-3.77-1.39-1.49.74-2.38,2.54-2.81,4-.78,2.74-1.82,4.47-5.15,5.46a9.33,9.33,0,0,1-3.69.31c-.42,0-.51.44-.68.41s-.05-.6-.52-.63a7.88,7.88,0,0,1-3.7-1.4c-1.49-1-2.72-2.16-2.5-4.2A2.21,2.21,0,0,0,30.85,34c-1.8.25-2.57,1.21-4.09,2.45-2.35,1.91-4.58,4-8.1,2.63A17.16,17.16,0,0,1,14,36.31c-.57-.47-1.29-1.13-2-.94-.55.14-1.18.52-1.23,1.83-.24,5.44-1.65,8.48-7.3,9.84-1.13.27-2.47.75-2.24,1.76.11.51.93.86,1.61,1.76,2,2.63,4.15,5.27,2.83,10.2-.72,2.73-.09,4.21,3.78,3.07a8.43,8.43,0,0,0,3.31-1.89c2.93-2.77,4.53-3,5.74-1.6.6.69,2.63,2.62-2.22,7.74a33.52,33.52,0,0,1-7,5.51c-4,2.47-7.26,5.16-7.49,10a31.07,31.07,0,0,0,.74,9c.78,3.06,1.67,5.89,3.74,8.09a22.16,22.16,0,0,0,10.9,6.49c7.45,1.87,14.66.75,21.54-2.4,5.37-2.47,10.59-5.26,15.89-7.9.57-.29,1.14-.57,1.72-.82a27.39,27.39,0,0,1,16-2.19c2.52.46,8.66,5.46,10.52,7.43a51.41,51.41,0,0,1,9,13.92c3,8.22,3.88,6.13,4.11,15.74.21,8.64-3,16-3.57,20.48-1,8.13.37,11.81,1.63,14.27a1.09,1.09,0,0,0,1.71.32,3.11,3.11,0,0,0,.43-1.48c.86-10.71,4.4-12.81,7-14.39,2.07-1.23,3-1.43,4.55-3,.79-.77-.33-1.58-1.86-2.08-1.89-.62-3.36.34-.87-2.26a17.16,17.16,0,0,0,2.18-3.07c2.36-4.57,2.21-7.18,1.94-8.4-.2-.93-2.1-.34-3.09,0-4.11,1.58-4.17.34-2.68-2,2.41-3.71,3-8.45,2.9-13.95,1.38,3.82,6.67,16.2,6.24,16.05-1.32.67-2,1.19-2,2.52a13,13,0,0,0,2.39,6.82c.66,1,.84.6.84.6a18.58,18.58,0,0,1-2.62-7.37,1.71,1.71,0,0,1,1.56-2c1-.06.62,0,0-1.8s-4.89-11.89-6-15.68c-.1-.33.84-1.35,1.07-1.65A17.08,17.08,0,0,1,109,111.8c.81-.82.6-2.07.29-3.47-.84-3.75-5.88-1.41-10.94-1.91C94,106,90,100.86,87.08,97.11c-1.57-2-3.47-3.64-4.42-6.31-1.17-3.31-1.6-4.45,2.58-5.18,1.6-.28,5-1.26,5.75-2.51,1.3-2.15.55-4.18-.38-5.81-1.54-2.7-6.09-5.26-16.53-5.84-1,0-3.14.12-3.67-.24s-.72-.85.6-4.89a11.35,11.35,0,0,0,.47-5.39c-.27-1.86-.8-3.65-2.18-4.65-1-.69-2.08-1.52-3.07-2.16-1.76-1.14-2.14-1.93.58-3.47,4-2.28,6.39-7.92,7.74-12.43.82-2.74,1.42-1.94,3.64.16a4.1,4.1,0,0,0,.7.43c3.18,2.07,5.77,4.08,9.81,3.68.65.91-3,6.2-2.22,13.49.43,3.79,1.36,10.25,6.16,11.94,3.08,1.07,7.14-1.4,7.8-4.15s.48-4.57-1-6.78a14.11,14.11,0,0,0-4.34-4c-1-.65-1.93-1.36-2.85-2.1A2.5,2.5,0,0,1,91.43,48c.4-1.15,3.26-1.59,3.62-1.65A26.31,26.31,0,0,0,104.38,43c1.9-1.08,9.27-6.3,9.51-6.57S114.3,36.18,114.25,36.15ZM69,56.75a6.23,6.23,0,0,1,2,4.85c0,1.34.33,1.47-.15,1.32-.37.51-3.33-1.81-2.84-4.16C68.6,56.06,68.68,56.45,69,56.75ZM68,48.83c0,.58-2.63,2.1-3.17,2.53-1.33,1-1,1.15-.26,1.85.39.41,2.09,1.76,2.52,2.14,1.32,1.17,1.06.16.39,4.21-.19,1.11,1,2.86,2.41,3.67s-.12.88-1.23.8A2.75,2.75,0,0,1,67,63.35c-1.46-1.21-2.25-2.32-4-2.93-4.23-1.47-8.46,3.7-8.18,7.74.25,3.73,3.59,7,6.93,5.36,1.11-.54,1.73-1.38,2.36-3.12.52-1.44,1.21-3.94,2-4.72s3.26-.9,3.75-.1,0,.84-.29,3c-.26,1.88-.19,2.68-2,6.57-1.18,2.45-4,3.09-7,2.65A12.36,12.36,0,0,1,55,75.33a1.91,1.91,0,0,0,.5.89c1.06.92,1.84,1.86,6.22,2.43,3,.39,5.67-1.39,6.39-2.92,1.78-3.74.82-3.64,4.94-3.55,4.42.09,14.57,1.12,17,5.43.61,1.08,1.89,2.53.72,4.93-.57,1.18-3.55,2-5.57,2.44-.62.12-1.24.34-1.87.43-1.38.19-2.2,1-2,2.25a13.82,13.82,0,0,0,3.08,7c2.74,3.27,7.25,10.11,11.39,11.59,6.73,2.4,11.69-1.32,12.8,1.51A4.84,4.84,0,0,1,109,111c-.18,1.23-1,1-1.95,1.92a3.22,3.22,0,0,0-1.4,2.92,34.52,34.52,0,0,1-1.12,10.27c-.63,2-2.83,5.1-2.84,5.55,0,.9.38,1.38,1.36,1.12a1.39,1.39,0,0,0,.26-.1c2.71-.94,5.1-2.32,5.26-.13a12.9,12.9,0,0,1-.56,3.63c-1.27,5.12-6.75,9.15-5.33,9.29s5.29.62,4.2,1.61c-1.37,1.26-2.35,1.51-4.62,2.89-4.65,2.8-5.39,6.36-6.22,11.12a38.89,38.89,0,0,1-.72,4.07c-.61,1.83-2.45-1.94-2.76-4.93-.1-1.07-.23-2.07.24-6.88.79-8.18,3.1-9.86,3.49-16.17.59-9.5,1.44-10.12-4.36-23.35a66.86,66.86,0,0,0-9.17-13.65c-2.58-2.72-7.48-6.36-11.47-7-4.44-.76-7.33-.09-11.56.89a32.71,32.71,0,0,0-7,3c-4.8,2.42-9.29,4.82-14.17,7.07a26.86,26.86,0,0,1-7.57,1.88c-4.72.69-9.37.23-13-3a12.13,12.13,0,0,1-3.17-12.12,14.75,14.75,0,0,1,10.15-10c4.78-1.43,17.53-4.89,18.81-5.33,5.05-1.75,5.87-2.38,6.78-4.69-1.06,1.87-3.34,2.7-6.76,3.93-4.45,1.6-18.14,5.3-20.39,6-6.53,2-11.12,9.5-9.66,16.15.32,1.47,2.49,6.29,6.52,8.37a20.86,20.86,0,0,0,12.31,1.16,28.75,28.75,0,0,1-15.18.51c-6.34-1.71-12.25-5.68-14-12-1.2-4.42-1.8-8.49-1.17-12.45.51-3.21,2.55-5.53,5.22-7.4,3.31-2.31,5.34-3.3,8.23-5.9,2-1.76,4.76-5.48,4.1-7.4-1.64-4.76-5.16-2.44-7.6,0a9.16,9.16,0,0,1-4.16,2C5.5,64,5.57,62,6,60.44a9.58,9.58,0,0,0-.15-5.29A13.51,13.51,0,0,0,2.8,50c-1.53-1.34-1.67-2.15,1.12-2.68a8.31,8.31,0,0,0,6.71-6.3c.24-1,.43-3.06.57-3.87.36-2.06,1.45-1.25,2.41-.55a25.73,25.73,0,0,0,4.47,2.73A7.84,7.84,0,0,0,21.8,40c2.06-.13,6.47-4.5,8.25-5.31a1.7,1.7,0,0,1,2.54,1.53A5.21,5.21,0,0,0,35,40.67a10.73,10.73,0,0,0,4.5,1.81c.08,0,.12.21.17.42.35-.24.31-.11.36-.06s0,.16.08.39c.15-.25.32-.59.42-.58,2.31.34,6.39-.39,8.18-2.66.89-1.13,1.81-3.91,2.44-5.22,1-2,3.19-2.69,4.24-.75,2.58,4.73,5.26,6.81,11.17,6.15,2.64-.29,4.24.44,2.14,3C67.52,44.51,67.87,46.5,68,48.83Zm-1.75,16c-1.51.76-2.26,4.41-3,6a2.92,2.92,0,0,1-2.16,2.08c-1.49.25-3.64.18-4.84-2.86a7.58,7.58,0,0,1-.18-4.86c.44-1.54,3.21-4.45,5-4.32,2.72-.15,4.17,1.84,5.61,3.25a3.28,3.28,0,0,0,2.9.63c.71-.13,1.28-.49,1.41-.44.34.14,0,1.77-.33.73-.11-.35-2-.32-2.09-.38A2.93,2.93,0,0,0,66.2,64.78ZM91.34,51c.8.73,6.26,4.22,7.65,6,3,3.75,1.28,11.4-5.72,10.51C89.45,67,87.16,60,86.91,55.58c-.31-1.75.19-7.42,2.63-12.9.23-.51,1.27,1.65,1.73,3.5S89.23,49.05,91.34,51Z" transform="translate(-0.66 -0.73)"/><path class="cls-2" d="M28.52,56.82a9.87,9.87,0,0,1,.7,4.91c-.14,1.4-.68,3.2-1.58,3.92.09.1.39,0,.48.12a4,4,0,0,0,1.07-2,9.69,9.69,0,0,0-.78-7.92C28.35,56.41,28.31,56.08,28.52,56.82Z" transform="translate(-0.66 -0.73)"/><path class="cls-2" d="M59.25,53.63c-.25,1.1-.58,2.18-1,3.88C60,55.06,60.52,53,60,50.59A28.53,28.53,0,0,0,59.25,53.63Z" transform="translate(-0.66 -0.73)"/><path class="cls-2" d="M31.14,43.21c-1.11-.53-1.65-2.27-1.74-2.6a.26.26,0,0,0-.34-.07c-.62.48-1.91,1.86-2.13,2.06-1.76,1.63-2.77,2.35-5.23,2.23a15.5,15.5,0,0,1-4.1-1c-2.57-1.09-2.85-1.28-2.91,1.47A3.77,3.77,0,0,1,13.28,48,8.64,8.64,0,0,1,7.44,49.3c-1.1-.09-1.05.81-.08,1.35,2.2,1.22,3.16,3.84,2.15,5.73-.67,1.25.42,1.62,1.69.84a10.61,10.61,0,0,1,6.85-1.7c4.15.46,6.36,2.48,6,7-.2,2.56-.84,5.47-3.73,6.89-.14.07-.13.62,0,.91,0,.12.5.24.7.17,2.87-1,6.07-5.63,6-8.8a40.41,40.41,0,0,0-1.36-9.41c-.71-3.68,1.1-5.15,5.09-8.58C30.82,43.63,31.27,43.28,31.14,43.21ZM12.52,55.82c-1.09.6-2.92,2-2.58.4a5.46,5.46,0,0,0,.34-1.86,4,4,0,0,0-.74-2.45C9.07,51,7.31,50,7.63,50a17.77,17.77,0,0,0,4.06-.26,1.66,1.66,0,0,1,.67,0c.37.1.71,1.14.9,1.45.48.83,1.36,2.41,1.76,3.28S14.19,54.89,12.52,55.82Zm4.33-1a2.08,2.08,0,0,1-1.1-.1,8.88,8.88,0,0,1-1.39-2.46,16.16,16.16,0,0,1-1.28-2.74,1.6,1.6,0,0,1,0-.31c.07-.29,1.19-.95,1.43-1.22.76.58,3.66,5.84,4,6.93C18.6,55.08,17.54,54.81,16.85,54.87Zm4.06.71c-.43-.13-1.45-.4-1.68-.78-1.13-1.87-2.85-5-4.09-6.86a1.13,1.13,0,0,1-.21-.63,23.29,23.29,0,0,0,.23-3.08c0-.16.07-.53.41,0a64.3,64.3,0,0,1,4,6.2,25,25,0,0,1,2.49,5.66A3.87,3.87,0,0,0,20.91,55.58Zm5.58,4.48c.11,2.19.48,3.71-2.62,7.65-.43.54-1.09.48-.91.12a14.21,14.21,0,0,0,1.61-6.09,15.16,15.16,0,0,0-.12-1.93c-.08-1.1-1.92-4.54-2-4.7-1.07-3.46-5-9-6.69-11.42A35.85,35.85,0,0,1,19.63,45,27.76,27.76,0,0,1,22,48.48c.94,1.62,1.9,3,2.81,4.87A17.08,17.08,0,0,1,26.49,60.06ZM27,46.63c-1.78,1.88-2.27,2.61-1.78,6.11,0,.26.05.25-.3-.25-.63-.93-3.76-6.36-4.36-7.31-.1-.16,2.06.54,3.92-.19a4.71,4.71,0,0,0,1.35-.76C26.13,44.05,27.16,46.49,27,46.63Zm3.08-3A33.1,33.1,0,0,0,27.64,46c-.19.22-1.16-1.79-1.09-2.14a9.18,9.18,0,0,1,2.24-2.35.57.57,0,0,1,.26,0h0s0,0,0,0,1.15,1.73,1.15,1.8A.4.4,0,0,1,30.11,43.62Z" transform="translate(-0.66 -0.73)"/><path class="cls-2" d="M61.64,45c-2-.37-4.24-.51-5.58-2.73-1.48-2.46-2-2.38-2.46.42-.35,1.95-2.33,3.43-4.1,4.33-1.93,1-1.55,1.56-.65,3.13,2.83,4.89,1.65,10.38-3.32,13a11.2,11.2,0,0,1-8.58.37c-2.33-.81-5.11-3.65-6.56-6.83A11.24,11.24,0,0,0,37,64.29a10.78,10.78,0,0,0,10.08-1.06,15.29,15.29,0,0,0,2.71-2.56C51.7,58,51.58,54.93,50.83,52a8.51,8.51,0,0,0-1.26-2.72c-.8-1.1.26-1.4.53-1.52.56-.25,1-.65,1.34-.5a3.85,3.85,0,0,1,1.34,1.49c2.73,4.92,2.28,13.07-6.27,17a16.09,16.09,0,0,1-6.84,1.54c1.83.12,3.83.42,5.38-.27,6.16-2.75,7.68-4.18,9.43-8.58.22-.54.86-.9,1.17-1.42a13.7,13.7,0,0,0,1.66-3,5.9,5.9,0,0,0-.83-5.26A14.13,14.13,0,0,1,55,44.61a7.3,7.3,0,0,1,0-2.33c.06-.09,1.34,2.33,3.82,3.09a18.08,18.08,0,0,0,2.84.57c.19,0,.2-.13.28-.34S61.82,45,61.64,45Zm-4.93,6.48c.14-.16.24-.11.3.18a6,6,0,0,1-.16,2.41,7.23,7.23,0,0,1-2.07,3c-.32.06-.21-.42.07-1.81a6.68,6.68,0,0,0,0-2.64C54.85,52.39,55.82,52.51,56.71,51.46Zm-.64-1.75c.27.65.34.85.21,1.15a1.31,1.31,0,0,1-1.59.67,27,27,0,0,0-1.95-4.39c-.49-.72,0-1,.39-1.56,1.52-2.23,1.16-.93,1.56.37A38.93,38.93,0,0,0,56.07,49.71Z" transform="translate(-0.66 -0.73)"/><path class="cls-2" d="M33.85,51c-1.55,4.63,1.37,8.47,6.35,8.83a6.14,6.14,0,0,0,4.09-1c2-1.6,2.43-6.33.17-8.2-2-1.64-4.43-3.48-4.15-6.23a4.81,4.81,0,0,0-.12-1.21c-.09.15-.17.27-.23.26s-.15-.32-.21-.58c-.23.15-.62.46-1.31,1A15.6,15.6,0,0,0,33.85,51ZM39.64,44a7.6,7.6,0,0,0,1,3.73c1,1.2,2.69,2.41,3.66,3.6A3.75,3.75,0,0,1,45.22,54c.1,3.48-1.37,6.14-6.24,5.11-4-.84-5.39-4.34-4.59-7.73A20.39,20.39,0,0,1,37,46.18C37.71,45.13,39.64,43.37,39.64,44Z" transform="translate(-0.66 -0.73)"/><path class="cls-2" d="M127.25,15.82c0-.71,2.49-1.27,2.6-1.29s.3,0,.86,0c1.29,0,4.25,3.82,1.78,3.79a3.55,3.55,0,0,0-.67,0c-2.43.28-1.47,3.29-1.85,3.68s-1.55.33-2,.44a2.4,2.4,0,0,1-1.67-.66c-.52-1.09,0-1.64.23-2.32a9.51,9.51,0,0,0,.28-3.35c-.08-.84-1-2.4-.92-3.24a4.3,4.3,0,0,1,2.65-3.32l.37-.1c.08,0,1.14,5.08,1.17,5.08" transform="translate(-0.66 -0.73)"/><path class="cls-2" d="M129.43,14.63a43.11,43.11,0,0,1-.85-5.1" transform="translate(-0.66 -0.73)"/><path class="cls-2" d="M130.45,14.63c-.35-.37,2.85,2.08,2.85,3.36" transform="translate(-0.66 -0.73)"/><path class="cls-1" d="M113.37,34.92a2.72,2.72,0,0,0,.54,1.45c2.34,3.51,11.64,7.93,12.22,7.78a27.21,27.21,0,0,0,3-3.29c2.28-3.69-1.46-5.65-3.5-5.58-.18,0-.21-.05-.2-.19.33-4.73,1-6.52,1.61-7.62a4.92,4.92,0,0,1,2-2.13.53.53,0,0,1,.25-.05q.44,0,.87,0c.72.06,1.86-.46,2-1.27a1.29,1.29,0,0,0-1.07-1.59,31.92,31.92,0,0,0-4.74-.18c-.15,0-.29-.27-.45-.32s-.29-.08-.44-.12l-.32,0a8.22,8.22,0,0,0,1-2.06c.9-3.55.7-6.19-4.15-10.66-.69-.64-8.07-6.22-8.71-6.74C113.26,2.25,113.37,23.64,113.37,34.92Zm11.56-13.6c-.1.22-.16.35-.29.41a17,17,0,0,0-2.58,0c-.24,0-.3,0-.27-.26.62-5.6-.13-7.55-1.47-9.94-.67-1.14-6.12-7.57-6.2-8.14l.09,0c.07,0,3.75,2.81,4.57,3.51s2,1.59,2.93,2.46C125.56,13.13,127.23,16,124.93,21.32Zm.86,1.3c-3.42.47-8.32,4.23-8.49,4.42a.18.18,0,0,1-.07-.05,21.82,21.82,0,0,1,4.26-4.71c.08-.08,3.15-.55,4.33.13C126,22.52,126,22.56,125.79,22.62Zm-.68,11.52a2.34,2.34,0,0,1-.53,1.65c-.06.06-.2.14-.23.12a5.31,5.31,0,0,1-.91-.39c-.11-.07-.07-.34-.06-.46a16.42,16.42,0,0,1,2.55-7.47,6.39,6.39,0,0,1,2.48-2.32,1.63,1.63,0,0,1-.2.17C127.37,26,125.53,28.22,125.11,34.14Zm-.44,9s.58-1,.67-1.22c1.34-2.81.77-4.31.27-4.92L125,36.2a0,0,0,0,1,0-.06,1.18,1.18,0,0,1,.79-.43c1.11-.28,4.91,1.11,3.12,4.77A6.41,6.41,0,0,1,124.67,43.12Zm-8.25-5.65a8.31,8.31,0,0,1,1.15-6.91c1.85-2.85,7.45-5.24,9.82-5.27l0,.08a9.88,9.88,0,0,0-1.22,1.1c-2.61,2.85-3.09,6-3.33,8.91a.19.19,0,0,1-.12.14l-.77.1c-.41.05-.83.09-1.24.16a.43.43,0,0,0-.26.19.24.24,0,0,0,.08.24.56.56,0,0,0,.31,0,1.8,1.8,0,0,1,.19,0c3.05-.92,5.31,1.48,4.55,4.06-1.45,4.87-7.78-1.37-8.08-1.58C117,38.26,116.59,38,116.42,37.47Zm.32-9.18c1.35-1.54,6.57-5.27,9.83-5.53a20.42,20.42,0,0,1,4.68.17.91.91,0,0,1,.55,1c-.07.51-.88,1-1.48.95s-1.14-.05-1.71-.1c-5.79.14-12.16,3.45-12.93,9.34a12.67,12.67,0,0,0-.17,2.93c-1.41-2.2-1.14.38-1.25-2.54C114.05,29.59,114.47,30.89,116.74,28.29Zm-3-25.06c1.64,3.81,7.54,8.09,7.69,13.16a23.89,23.89,0,0,1,0,5.21.57.57,0,0,1-.08.24c-4.21,3.38-7.2,9-7.39,10C113.86,22.35,113.69,12.82,113.69,3.23Z" transform="translate(-0.66 -0.73)"/><path class="cls-1" d="M131.15,141a21.44,21.44,0,0,1,.32-3.3c1.25-7.86,6.28-17,10.31-21.9,11.79-14.46,17.9-18.33,36.88-13.79.31.07,6.5,1.72,10,2.77a18.75,18.75,0,0,1,2.41.93c2.21.74-16.79-5.21-24.09-5.17-.34,0-6.41-.1-11,2.35-3.95,2.14-15.14,11.5-20.93,24.72A62.59,62.59,0,0,0,131.15,141" transform="translate(-0.66 -0.73)"/><path class="cls-1" d="M187.3,104.6c7.24,2,14.17,6.5,19.29,7.69s11.16.33,13.46-4.12A32.64,32.64,0,0,0,223,98.65q.13-.91.21-1.8s-.09-.48-.26.58c-.5,3.21-2,10.69-4.82,12.69-4.81,3.41-10.35,2.21-14.84.68-3.37-1.15-7.22-3.34-10.07-4.38-2.48-.89-5.2-1.66-5.2-1.79" transform="translate(-0.66 -0.73)"/><path class="cls-1" d="M113.6,164.92c3-2.36,6.58-4.45,8.59-6.2s6.49-6.37,3.45-8.25c-1.26-.78-.7-.47-.17,1,1.21,3.3-3,6.8-5,8.15-1.55,1-3.33,2.19-4.74,2.92-.82.42-1.92.77-2.11,1.17a1.27,1.27,0,0,0,0,1" transform="translate(-0.66 -0.73)"/><path class="cls-1" d="M117.39,161.61c2.79,1.08,5.61,2.61,7.59,3.25s6.6.79,6.35-1.52c-.14-1.28.31.07-.6.85-1.43,1.21-5.22.49-7-.16a44.7,44.7,0,0,1-5.43-2.43c-.72-.42-.61.1-.61,0" transform="translate(-0.66 -0.73)"/><path class="cls-1" d="M115.89,62.77a54.07,54.07,0,0,0,1.68,7.79c.84,2.63,1.44,5,6.08,5.71.26,0,.93.48.65,0a13.42,13.42,0,0,0-2.57-1c-2.56-.92-3.4-3.8-3.93-5.69a46.14,46.14,0,0,1-1.16-6c-.07-.84-.66-.54-.6-.59" transform="translate(-0.66 -0.73)"/><path class="cls-1" d="M113.67,63.92c2.21-2.86,6,2.83,7-2.31.89-4.18.51-6.77-2-11a27.7,27.7,0,0,0-5.06-6.08,77.09,77.09,0,0,1,5.27,7.68,13.09,13.09,0,0,1,1,10.17c-.94,2.47-4.67-1.26-6.27.88" transform="translate(-0.66 -0.73)"/><path class="cls-1" d="M113.61,75.11a32.73,32.73,0,0,1,10.14,1c4.07,1.07,7.65,3.5,8.34,7.4a32.59,32.59,0,0,1,0,10c-.1.61-.21,1.21-.34,1.78,0,0-1,1.29-.59.3,1-2.55,1.21-12.21-.89-15-3.59-4.68-11.91-5.23-16.65-5.1" transform="translate(-0.66 -0.73)"/><path class="cls-2" d="M127.9,102.33c5.74-5.07,5.7-19.48,5.75-21.66.08-3.18.91-6,3.95-7.63a37.47,37.47,0,0,1,12.55-4.42c1.27-.16,1.56-.21,1-1.45s-1.25-2-1.18-3.06c.16-2.65.85-5.11,1.6-9.44.16-.9,1.53-.81,2.39-1.05,3.23-.9,3.23-1.21.64-2.82-.85-.53-4-1.94-3.56-5.72.2-1.71-1.42-2.71-2.35-1.28-1.21,1.85-2.62,2.15-5.35,1.81-1.35-.17-1.62.53-.85,1.67,2.61,3.88,2.28,8,1.55,12.35a11.63,11.63,0,0,1-3,6.56l.41.36a40.38,40.38,0,0,1,4.15-1.12c.74-.12,3.09-.89,3.73-.51s1,2,1.45,2.9c-8.11,1.34-10.39,2.83-13.56,4.68a8.11,8.11,0,0,0-4.13,7.55c.11,15.3-3.21,27-19.66,26.08.17,0-.18.37,0,.39C113.54,106,121.1,108.34,127.9,102.33ZM149.53,63c-.26,1-1.24,1.22-2.24,1.5a20,20,0,0,1-2.06.38c-3,.42-3.47,2.08-1.49-2.14,1.07-2.31,2.56-10.06-.23-15.28-.77-1.42.45-1.21.72-1.2,2.72.11,3.45-.15,5.09-2.22.05-.07,1.19-.47,1.07,1-.36,4,2,5,4.3,6.65,1.09.57.57,1-.52,1.2-2.92.62-2.92.62-3.55,4.48C150.34,59,150,61.21,149.53,63Z" transform="translate(-0.66 -0.73)"/><path class="cls-2" d="M127.91,50.36c-2.71-.53-11.5-1.06-14.18-7.52a3.61,3.61,0,0,1-.12-.94c.48,0,.73.3,1.09.47a.31.31,0,0,1,.14.23c.56,3.52,3.44,5.69,10.54,6.95a12.21,12.21,0,0,0,4,.28c.11.86-1,1.57-1.83,2.13a17,17,0,0,0-3,2.9c-3.21,3.7-6,16.72,7.58,17.28a5.71,5.71,0,0,0,4.11-1.85c.39,2.91-5.48,3.83-6.63,7a6,6,0,0,0-.32,1.63c-.11-.35-.27.21-.27-.11,0-.13.14-1.14.15-1.27.23-2,3.77-4.09,4.46-4.65.33-.17,2-1.32,1.91-1.25-4.92,3-11.38-.91-12.85-3.9-3.46-7,0-12.77,4.57-16.2C127.34,51.45,128.7,50.51,127.91,50.36Z" transform="translate(-0.66 -0.73)"/><path class="cls-2" d="M113.25,36.5c.23.27,7.61,5.49,9.51,6.57a26.12,26.12,0,0,0,9.33,3.32c.36.06,3.23.5,3.63,1.65a2.52,2.52,0,0,1-.86,3c-.92.74-1.87,1.45-2.85,2.1a14.11,14.11,0,0,0-4.34,4c-1.45,2.21-1.63,4-1,6.79s4.72,5.21,7.8,4.14c4.8-1.69,5.74-8.15,6.16-11.94.82-7.29-2.87-12.58-2.22-13.49,4,.4,6.63-1.61,9.82-3.68a5.06,5.06,0,0,0,.7-.43c2.21-2.09,2.82-2.9,3.64-.16,1.34,4.51,3.69,10.15,7.73,12.43,2.72,1.54,2.35,2.33.58,3.47-1,.64-2.11,1.47-3.07,2.16-1.37,1-1.91,2.79-2.17,4.65a11.25,11.25,0,0,0,.46,5.39c1.32,4,1.25,4.45.6,4.89s-2.64.19-3.66.24c-10.44.58-15,3.14-16.54,5.84-.93,1.63-1.68,3.66-.38,5.81.76,1.25,4.15,2.23,5.75,2.51,4.18.73,3.75,1.87,2.58,5.18-.94,2.67-2.84,4.29-4.41,6.31-2.93,3.75-6.88,8.89-11.3,9.32-5.05.49-10.1-1.85-10.94,1.9-.31,1.4-.51,2.66.29,3.47a17.08,17.08,0,0,1,1.44,1.24c.23.3,1.17,1.32,1.07,1.65-1.14,3.79-5.39,14-6,15.68s-1,1.74,0,1.8a1.7,1.7,0,0,1,1.56,1.95,18.58,18.58,0,0,1-2.62,7.37s.18.35.84-.6a13.11,13.11,0,0,0,2.4-6.82c0-1.33-.66-1.85-2-2.52-.43.15,4.87-12.23,6.23-16-.11,5.5.5,10.24,2.91,14,1.49,2.29,1.43,3.53-2.67,1.95-1-.38-2.9-1-3.1,0-.27,1.22-.42,3.83,1.94,8.4a16.74,16.74,0,0,0,2.19,3.07c2.48,2.6,1,1.64-.88,2.26-1.53.5-2.64,1.31-1.85,2.08,1.58,1.55,2.47,1.75,4.54,3,2.65,1.57,6.2,3.67,7.05,14.38a3.11,3.11,0,0,0,.43,1.48,1.09,1.09,0,0,0,1.71-.32c1.26-2.46,2.63-6.14,1.63-14.26-.55-4.52-3.78-11.85-3.57-20.49.23-9.61,1.07-7.52,4.11-15.74a51.41,51.41,0,0,1,9-13.92c1.86-2,8-7,10.52-7.43a27.38,27.38,0,0,1,15.95,2.19c.58.25,1.16.53,1.72.82,5.3,2.64,10.52,5.43,15.89,7.9,6.88,3.15,14.09,4.27,21.54,2.4a22.16,22.16,0,0,0,10.9-6.49c2.07-2.2,3-5,3.74-8.09a31.07,31.07,0,0,0,.74-9c-.23-4.87-3.48-7.56-7.49-10a33.8,33.8,0,0,1-7-5.5c-4.85-5.13-2.82-7.06-2.22-7.75,1.21-1.37,2.81-1.17,5.75,1.6a8.4,8.4,0,0,0,3.3,1.89c3.87,1.14,4.51-.34,3.78-3.06-1.32-4.94.82-7.58,2.83-10.21.68-.9,1.5-1.25,1.62-1.76.22-1-1.12-1.49-2.25-1.76-5.65-1.36-7.06-4.4-7.29-9.83-.06-1.32-.69-1.7-1.24-1.84-.76-.19-1.47.47-2.05.94a17,17,0,0,1-4.65,2.77c-3.51,1.38-5.75-.71-8.1-2.63-1.51-1.24-2.29-2.2-4.09-2.45a2.21,2.21,0,0,0-2.42,2.43c.22,2-1,3.23-2.5,4.2a8,8,0,0,1-3.7,1.41c-.46,0-.33.6-.52.63s-.26-.46-.67-.42a9.36,9.36,0,0,1-3.7-.31c-3.32-1-4.36-2.72-5.15-5.46a6.39,6.39,0,0,0-2.81-4.05c-1.68-.83-2.86-.21-3.77,1.39-2.37,4.19-5.7,6.43-10.59,5.4a4.05,4.05,0,0,0-1.1,0c-3.23.24-3.5,1.2-1.61,3.72a6.42,6.42,0,0,1,.88,5.62c-1.35-1.07-1.61-.67-5-10.17-.46-1.26-.79-2.66-2.22-2.89-.37-.06-.37-.06-1,.63-2.74,2.81-7.31,6.17-11.39,5.51s-2.45,4.48-4.45,4.38c-1.33-.06-2.67-.51-4-.68-3.82-.49-10.48-4.48-13.35-6.91A33.36,33.36,0,0,0,113.54,36c-.12-.08-.45.11-.65.23C112.84,36.26,113.15,36.38,113.25,36.5ZM159.1,58.84c.49,2.35-2.47,4.67-2.84,4.16-.48.15-.15,0-.15-1.32a6.23,6.23,0,0,1,2-4.85C158.46,56.53,158.54,56.14,159.1,58.84Zm-.63-15.63c-2.1-2.52-.5-3.24,2.14-3,5.91.66,8.59-1.42,11.17-6.15,1.06-1.94,3.27-1.27,4.25.75.62,1.31,1.54,4.09,2.43,5.22,1.79,2.27,5.87,3,8.18,2.66.1,0,.27.33.42.58.05-.23.08-.39.08-.39s0-.17.37.06c0-.21.08-.41.16-.42a10.73,10.73,0,0,0,4.5-1.81,5.21,5.21,0,0,0,2.38-4.41,1.71,1.71,0,0,1,2.54-1.53c1.79.81,6.2,5.18,8.25,5.31a7.81,7.81,0,0,0,3.72-.67,25.73,25.73,0,0,0,4.47-2.73c1-.7,2.05-1.51,2.41.55.14.81.33,2.92.57,3.87a8.3,8.3,0,0,0,6.71,6.3c2.79.54,2.66,1.34,1.12,2.68a13.51,13.51,0,0,0-3.07,5.11,9.67,9.67,0,0,0-.14,5.29c.44,1.6.51,3.55-2,3.23a9.11,9.11,0,0,1-4.16-2c-2.43-2.41-6-4.73-7.59,0-.67,1.92,2.15,5.64,4.09,7.4,2.9,2.6,4.93,3.59,8.23,5.9,2.67,1.87,4.71,4.19,5.23,7.4.63,4,0,8-1.18,12.45-1.72,6.28-7.63,10.25-14,12a28.75,28.75,0,0,1-15.18-.51,20.84,20.84,0,0,0,12.31-1.16c4-2.07,6.2-6.9,6.52-8.37,1.46-6.65-3.13-14.1-9.66-16.15-2.25-.7-15.94-4.4-20.39-6-3.42-1.23-5.7-2.06-6.76-3.93.91,2.31,1.73,2.94,6.78,4.69,1.28.44,14,3.9,18.81,5.33a14.75,14.75,0,0,1,10.15,10,12.11,12.11,0,0,1-3.17,12.12c-3.63,3.25-8.28,3.71-13,3a26.94,26.94,0,0,1-7.57-1.88c-4.87-2.25-9.36-4.65-14.17-7.07a32.64,32.64,0,0,0-7-3c-4.24-1-7.13-1.65-11.57-.89-4,.69-8.89,4.33-11.47,7.06a66.33,66.33,0,0,0-9.17,13.65c-5.79,13.22-4.95,13.84-4.36,23.34.39,6.31,2.71,8,3.5,16.17.46,4.81.34,5.81.23,6.88-.31,3-2.15,6.76-2.76,4.93a38.62,38.62,0,0,1-.71-4.07c-.83-4.76-1.58-8.31-6.23-11.12-2.27-1.38-3.25-1.63-4.62-2.89-1.08-1,2.79-1.47,4.2-1.61s-4.06-4.17-5.33-9.29a12.52,12.52,0,0,1-.55-3.63c.15-2.19,2.54-.81,5.26.14a1.84,1.84,0,0,0,.25.09c1,.27,1.39-.22,1.36-1.12,0-.45-2.2-3.59-2.84-5.55a34.86,34.86,0,0,1-1.12-10.27,3.21,3.21,0,0,0-1.4-2.92c-1-.91-1.77-.69-1.95-1.92a4.86,4.86,0,0,1,.46-3.21c1.11-2.84,6.07.88,12.81-1.52,4.13-1.48,8.64-8.32,11.37-11.59a13.74,13.74,0,0,0,3.09-7c.16-1.27-.67-2.06-2-2.25-.63-.09-1.24-.31-1.87-.43-2-.38-5-1.26-5.57-2.44-1.16-2.4.12-3.85.72-4.93,2.41-4.3,12.55-5.34,17-5.43,4.13-.09,3.16-.19,4.94,3.55.72,1.53,3.43,3.31,6.4,2.92,4.37-.57,5.15-1.51,6.21-2.43a1.91,1.91,0,0,0,.5-.89,12.36,12.36,0,0,1-5.57,2.47c-3,.44-5.86-.2-7-2.65-1.86-3.89-1.79-4.69-2.05-6.57-.3-2.16-.7-2.33-.29-3s2.77-.82,3.75.1c.83.78,1.52,3.29,2,4.72.63,1.74,1.25,2.58,2.36,3.12,3.35,1.61,6.68-1.63,6.94-5.36.27-4-4-9.21-8.18-7.74-1.75.61-2.54,1.72-4,2.93a2.75,2.75,0,0,1-1.59.68c-1.11.08-2.72,0-1.23-.8s2.6-2.56,2.42-3.67c-.68-4-.94-3,.38-4.2.43-.38,2.13-1.74,2.53-2.15.68-.7,1.06-.8-.27-1.85-.54-.43-3.19-1.95-3.17-2.52C159.27,46.58,159.62,44.59,158.47,43.21Zm.08,21.48c-.08.06-2,0-2.08.38-.32,1-.68-.59-.34-.73.13,0,.71.31,1.41.44a3.27,3.27,0,0,0,2.9-.63c1.44-1.41,2.89-3.4,5.61-3.25,1.81-.13,4.58,2.78,5,4.32a7.52,7.52,0,0,1-.18,4.86c-1.2,3-3.34,3.11-4.84,2.86a2.9,2.9,0,0,1-2.15-2.08c-.69-1.59-1.45-5.24-3-6A3,3,0,0,0,158.55,64.69ZM135.88,46.26c.45-1.85,1.49-4,1.72-3.5,2.45,5.48,2.94,11.15,2.64,12.9-.26,4.42-2.55,11.39-6.37,11.88-7,.9-8.66-6.76-5.71-10.51,1.38-1.75,6.84-5.24,7.64-6C137.91,49.13,135.46,48,135.88,46.26Z" transform="translate(-0.66 -0.73)"/><path class="cls-2" d="M198.62,56.9a9.87,9.87,0,0,0-.7,4.91c.15,1.4.69,3.2,1.59,3.92-.09.1-.39,0-.48.12a4,4,0,0,1-1.07-2,9.69,9.69,0,0,1,.77-7.92C198.79,56.49,198.84,56.16,198.62,56.9Z" transform="translate(-0.66 -0.73)"/><path class="cls-2" d="M167.89,53.71c.25,1.1.58,2.18,1,3.89-1.78-2.46-2.31-4.57-1.75-6.93A29.11,29.11,0,0,1,167.89,53.71Z" transform="translate(-0.66 -0.73)"/><path class="cls-2" d="M196.41,43.79c4,3.43,5.81,4.9,5.1,8.58a40.2,40.2,0,0,0-1.37,9.41c0,3.17,3.16,7.79,6,8.8.2.07.66,0,.7-.17.09-.29.09-.84-.05-.91-2.89-1.42-3.53-4.33-3.73-6.89-.35-4.53,1.87-6.55,6-7a10.5,10.5,0,0,1,6.85,1.69c1.28.78,2.36.42,1.69-.84-1-1.89,0-4.51,2.15-5.73,1-.54,1-1.44-.07-1.35a8.61,8.61,0,0,1-5.84-1.26,3.75,3.75,0,0,1-1.42-2.76c0-2.75-.34-2.56-2.9-1.47a15.67,15.67,0,0,1-4.11,1c-2.46.12-3.46-.6-5.23-2.23-.21-.2-1.5-1.58-2.13-2.06a.26.26,0,0,0-.34.07A4.48,4.48,0,0,1,196,43.3C195.87,43.36,196.32,43.71,196.41,43.79Zm15.71,10.78c.4-.87,1.28-2.45,1.77-3.28.18-.31.53-1.35.89-1.45a1.66,1.66,0,0,1,.67,0,17.8,17.8,0,0,0,4.06.26c.32,0-1.43,1-1.91,1.89a4,4,0,0,0-.74,2.45,5.71,5.71,0,0,0,.34,1.86c.34,1.6-1.48.2-2.58-.4C213,55,211.71,55.49,212.12,54.57Zm-3.53.48c.38-1.09,3.28-6.35,4-6.93.24.28,1.36.93,1.43,1.22a.81.81,0,0,1,0,.31,16,16,0,0,1-1.27,2.75,8.9,8.9,0,0,1-1.4,2.45,2,2,0,0,1-1.1.1C209.6,54.89,208.55,55.16,208.59,55.05ZM205,56.14a25.2,25.2,0,0,1,2.49-5.66,64.3,64.3,0,0,1,4-6.2c.33-.5.41-.13.41,0a23.29,23.29,0,0,0,.23,3.08A1,1,0,0,1,212,48c-1.24,1.87-3,5-4.09,6.86-.23.38-1.25.65-1.67.78A3.82,3.82,0,0,0,205,56.14Zm-2.75-2.71c.91-1.88,1.87-3.25,2.81-4.87a26.7,26.7,0,0,1,2.42-3.45,36.6,36.6,0,0,1,3.83-1.34c-1.68,2.43-5.62,8-6.69,11.42,0,.17-1.88,3.6-2,4.71a11.91,11.91,0,0,0-.11,1.92,14.22,14.22,0,0,0,1.6,6.09c.18.36-.47.42-.9-.12-3.11-3.94-2.74-5.46-2.63-7.65A17.08,17.08,0,0,1,202.29,53.43Zm-1-9.12a4.71,4.71,0,0,0,1.35.76c1.86.73,4,0,3.92.19-.59,1-3.73,6.38-4.36,7.31-.35.51-.34.51-.3.26.5-3.51,0-4.24-1.77-6.12C200,46.57,201,44.13,201.28,44.31Zm-4.34-.92c0-.08,1.14-1.7,1.15-1.81s0,0,0,0h0a.57.57,0,0,1,.26,0,9,9,0,0,1,2.24,2.35c.07.35-.9,2.36-1.08,2.14A33.12,33.12,0,0,0,197,43.7.39.39,0,0,1,196.94,43.39Z" transform="translate(-0.66 -0.73)"/><path class="cls-2" d="M165.25,45.68c.08.21.08.36.27.34a19,19,0,0,0,2.84-.56c2.48-.77,3.76-3.19,3.82-3.1a7.3,7.3,0,0,1,0,2.33,13.86,13.86,0,0,1-1.48,4.18,5.93,5.93,0,0,0-.83,5.26,13.7,13.7,0,0,0,1.66,3c.31.52.95.88,1.16,1.42,1.76,4.4,3.28,5.83,9.44,8.58,1.56.69,3.55.4,5.39.28a16.3,16.3,0,0,1-6.85-1.55c-8.54-4-9-12.11-6.27-17a3.85,3.85,0,0,1,1.34-1.49c.29-.15.78.25,1.34.5.27.12,1.33.42.53,1.53a8.36,8.36,0,0,0-1.26,2.71c-.75,2.94-.87,6,1.07,8.68a15.29,15.29,0,0,0,2.71,2.56,10.78,10.78,0,0,0,10.08,1.06,11.27,11.27,0,0,0,6.59-7.64c-1.46,3.17-4.24,6-6.57,6.82a11.18,11.18,0,0,1-8.57-.37c-5-2.59-6.16-8.08-3.33-13,.9-1.57,1.28-2.16-.65-3.13-1.77-.89-3.74-2.38-4.09-4.33-.51-2.8-1-2.88-2.47-.42-1.34,2.22-3.56,2.36-5.57,2.73C165.33,45.09,165.19,45.52,165.25,45.68Zm7,7a6.68,6.68,0,0,0,0,2.64c.27,1.39.38,1.88.06,1.81a7.16,7.16,0,0,1-2.07-3,6.15,6.15,0,0,1-.16-2.41q.09-.42.3-.18C171.33,52.59,172.3,52.48,172.26,52.64Zm.19-6.61c.41-1.3,0-2.6,1.56-.37.38.56.88.84.39,1.56a27.88,27.88,0,0,0-2,4.39,1.31,1.31,0,0,1-1.59-.67c-.12-.3-.06-.5.22-1.15C171.61,48.48,171.92,47.71,172.45,46Z" transform="translate(-0.66 -0.73)"/><path class="cls-2" d="M188.7,44c-.69-.58-1.08-.89-1.31-1-.06.27-.11.56-.21.58s-.14-.11-.23-.26a5.33,5.33,0,0,0-.12,1.21c.28,2.75-2.16,4.59-4.15,6.23-2.26,1.87-1.85,6.6.17,8.21a6.2,6.2,0,0,0,4.09,1c5-.36,7.9-4.2,6.35-8.83A15.44,15.44,0,0,0,188.7,44Zm1.49,2.31a20.39,20.39,0,0,1,2.56,5.19c.8,3.39-.61,6.89-4.59,7.73-4.87,1-6.34-1.63-6.24-5.11a3.75,3.75,0,0,1,.89-2.62c1-1.19,2.7-2.4,3.66-3.6a7.63,7.63,0,0,0,1-3.73C187.51,43.45,189.43,45.21,190.19,46.26Z" transform="translate(-0.66 -0.73)"/></svg>